<svg width="416" height="498" viewBox="0 0 416 498" fill="none" xmlns="http://www.w3.org/2000/svg">
<g filter="url(#filter0_dd_4411_1509)">
<rect x="3" y="2" width="410" height="491.898" rx="8" fill="white"/>
<path d="M52.3366 140.716V150.898H50.9247L45.7493 143.431H45.6548V150.898H44.1186V140.716H45.5405L50.7209 148.193H50.8153V140.716H52.3366ZM56.6806 151.067C56.1967 151.067 55.7592 150.977 55.3681 150.799C54.977 150.616 54.6671 150.353 54.4384 150.008C54.213 149.663 54.1003 149.241 54.1003 148.74C54.1003 148.309 54.1832 147.955 54.3489 147.676C54.5146 147.398 54.7383 147.178 55.0201 147.015C55.3018 146.853 55.6167 146.73 55.9647 146.647C56.3127 146.564 56.6673 146.501 57.0286 146.458C57.486 146.405 57.8572 146.362 58.1422 146.329C58.4273 146.293 58.6344 146.235 58.7637 146.155C58.8929 146.076 58.9576 145.946 58.9576 145.767V145.732C58.9576 145.298 58.8349 144.962 58.5897 144.723C58.3477 144.485 57.9864 144.365 57.5059 144.365C57.0054 144.365 56.611 144.476 56.3226 144.698C56.0376 144.917 55.8404 145.161 55.731 145.429L54.334 145.111C54.4997 144.647 54.7417 144.272 55.0598 143.987C55.3813 143.699 55.7509 143.49 56.1685 143.361C56.5861 143.228 57.0253 143.162 57.486 143.162C57.7909 143.162 58.1141 143.199 58.4554 143.272C58.8001 143.341 59.1216 143.47 59.4199 143.659C59.7215 143.848 59.9685 144.118 60.1607 144.47C60.3529 144.818 60.449 145.27 60.449 145.827V150.898H58.9973V149.854H58.9377C58.8416 150.046 58.6974 150.235 58.5051 150.421C58.3129 150.606 58.066 150.76 57.7644 150.883C57.4628 151.006 57.1015 151.067 56.6806 151.067ZM57.0037 149.874C57.4147 149.874 57.766 149.793 58.0577 149.63C58.3527 149.468 58.5764 149.256 58.7289 148.994C58.8846 148.729 58.9625 148.445 58.9625 148.144V147.159C58.9095 147.212 58.8068 147.262 58.6543 147.308C58.5051 147.352 58.3345 147.39 58.1422 147.423C57.95 147.453 57.7627 147.481 57.5804 147.507C57.3981 147.531 57.2457 147.55 57.123 147.567C56.8347 147.603 56.5712 147.665 56.3326 147.751C56.0972 147.837 55.9083 147.961 55.7658 148.124C55.6266 148.283 55.557 148.495 55.557 148.76C55.557 149.128 55.6929 149.406 55.9647 149.595C56.2364 149.781 56.5828 149.874 57.0037 149.874ZM62.429 150.898V143.262H63.8558V144.504H63.9503C64.1094 144.084 64.3696 143.755 64.7308 143.52C65.0921 143.281 65.5246 143.162 66.0284 143.162C66.5388 143.162 66.9664 143.281 67.3111 143.52C67.6591 143.759 67.916 144.087 68.0817 144.504H68.1612C68.3435 144.097 68.6335 143.772 69.0312 143.53C69.429 143.285 69.9029 143.162 70.4531 143.162C71.1458 143.162 71.7109 143.379 72.1484 143.813C72.5893 144.248 72.8097 144.902 72.8097 145.777V150.898H71.3232V145.916C71.3232 145.399 71.1823 145.025 70.9006 144.793C70.6188 144.561 70.2824 144.445 69.8913 144.445C69.4074 144.445 69.0312 144.594 68.7628 144.892C68.4943 145.187 68.3601 145.567 68.3601 146.031V150.898H66.8786V145.822C66.8786 145.408 66.7493 145.075 66.4908 144.823C66.2322 144.571 65.8958 144.445 65.4815 144.445C65.1998 144.445 64.9396 144.519 64.701 144.669C64.4657 144.814 64.2751 145.018 64.1293 145.28C63.9867 145.542 63.9155 145.845 63.9155 146.19V150.898H62.429ZM78.0932 151.052C77.3408 151.052 76.6929 150.891 76.1493 150.57C75.6091 150.245 75.1915 149.789 74.8965 149.203C74.6048 148.613 74.459 147.922 74.459 147.129C74.459 146.347 74.6048 145.658 74.8965 145.061C75.1915 144.465 75.6025 143.999 76.1294 143.664C76.6597 143.33 77.2795 143.162 77.9888 143.162C78.4197 143.162 78.8373 143.233 79.2417 143.376C79.646 143.518 80.0089 143.742 80.3304 144.047C80.6519 144.352 80.9055 144.748 81.0911 145.235C81.2767 145.719 81.3695 146.308 81.3695 147V147.527H75.2992V146.414H79.9128C79.9128 146.022 79.8333 145.676 79.6742 145.375C79.5151 145.07 79.2914 144.829 79.003 144.654C78.718 144.478 78.3832 144.39 77.9988 144.39C77.5811 144.39 77.2166 144.493 76.905 144.698C76.5968 144.901 76.3581 145.166 76.1891 145.494C76.0234 145.819 75.9405 146.172 75.9405 146.553V147.423C75.9405 147.933 76.03 148.367 76.209 148.725C76.3913 149.083 76.6448 149.357 76.9696 149.546C77.2944 149.731 77.6739 149.824 78.1081 149.824C78.3899 149.824 78.6467 149.784 78.8787 149.705C79.1107 149.622 79.3113 149.499 79.4803 149.337C79.6493 149.174 79.7786 148.974 79.8681 148.735L81.275 148.989C81.1623 149.403 80.9602 149.766 80.6685 150.078C80.3801 150.386 80.0172 150.626 79.5797 150.799C79.1455 150.968 78.65 151.052 78.0932 151.052Z" fill="#0A2134"/>
<g filter="url(#filter1_d_4411_1509)">
<rect x="43" y="161.898" width="330" height="44" rx="8" fill="white"/>
<rect x="43.5" y="162.398" width="329" height="43" rx="7.5" stroke="#D0D5DD"/>
<path d="M58.4091 189.898V178.262H65.4318V179.512H59.8182V183.443H65.0682V184.693H59.8182V188.648H65.5227V189.898H58.4091ZM69.1307 184.648V189.898H67.7898V181.171H69.0852V182.534H69.1989C69.4034 182.091 69.714 181.735 70.1307 181.466C70.5473 181.193 71.0852 181.057 71.7443 181.057C72.3352 181.057 72.8523 181.178 73.2955 181.421C73.7386 181.659 74.0833 182.023 74.3295 182.512C74.5758 182.996 74.6989 183.61 74.6989 184.352V189.898H73.358V184.443C73.358 183.758 73.1799 183.224 72.8239 182.841C72.4678 182.455 71.9792 182.262 71.358 182.262C70.9299 182.262 70.5473 182.354 70.2102 182.54C69.8769 182.726 69.6136 182.996 69.4205 183.352C69.2273 183.709 69.1307 184.14 69.1307 184.648ZM80.9446 181.171V182.307H76.4219V181.171H80.9446ZM77.7401 179.08H79.081V187.398C79.081 187.777 79.1359 188.061 79.2457 188.25C79.3594 188.436 79.5033 188.561 79.6776 188.625C79.8556 188.686 80.0431 188.716 80.2401 188.716C80.3878 188.716 80.509 188.709 80.6037 188.693C80.6984 188.674 80.7741 188.659 80.831 188.648L81.1037 189.852C81.0128 189.887 80.8859 189.921 80.723 189.955C80.5601 189.993 80.3537 190.012 80.1037 190.012C79.7249 190.012 79.3537 189.93 78.9901 189.767C78.6302 189.604 78.331 189.356 78.0923 189.023C77.8575 188.69 77.7401 188.269 77.7401 187.762V179.08ZM86.527 190.08C85.6861 190.08 84.9607 189.894 84.3509 189.523C83.7448 189.148 83.277 188.625 82.9474 187.955C82.6217 187.281 82.4588 186.496 82.4588 185.602C82.4588 184.709 82.6217 183.921 82.9474 183.239C83.277 182.553 83.7353 182.019 84.3224 181.637C84.9134 181.25 85.6027 181.057 86.3906 181.057C86.8452 181.057 87.294 181.133 87.7372 181.284C88.1804 181.436 88.5838 181.682 88.9474 182.023C89.3111 182.36 89.6009 182.807 89.8168 183.364C90.0327 183.921 90.1406 184.606 90.1406 185.421V185.989H83.4134V184.83H88.777C88.777 184.337 88.6785 183.898 88.4815 183.512C88.2884 183.125 88.0118 182.82 87.652 182.597C87.2959 182.373 86.8755 182.262 86.3906 182.262C85.8565 182.262 85.3944 182.394 85.0043 182.659C84.6179 182.921 84.3205 183.262 84.1122 183.682C83.9039 184.102 83.7997 184.553 83.7997 185.034V185.807C83.7997 186.466 83.9134 187.025 84.1406 187.483C84.3717 187.938 84.6918 188.284 85.1009 188.523C85.5099 188.758 85.9853 188.875 86.527 188.875C86.8793 188.875 87.1974 188.826 87.4815 188.727C87.7694 188.625 88.0175 188.474 88.2259 188.273C88.4342 188.068 88.5952 187.815 88.7088 187.512L90.0043 187.875C89.8679 188.315 89.6387 188.701 89.3168 189.034C88.9948 189.364 88.5971 189.621 88.1236 189.807C87.6501 189.989 87.1179 190.08 86.527 190.08ZM92.1804 189.898V181.171H93.4759V182.489H93.5668C93.7259 182.057 94.0137 181.707 94.4304 181.438C94.8471 181.169 95.3168 181.034 95.8395 181.034C95.938 181.034 96.0611 181.036 96.2088 181.04C96.3565 181.044 96.4683 181.049 96.544 181.057V182.421C96.4986 182.409 96.3944 182.392 96.2315 182.37C96.0724 182.343 95.9039 182.33 95.7259 182.33C95.3016 182.33 94.9228 182.419 94.5895 182.597C94.2599 182.771 93.9986 183.013 93.8054 183.324C93.616 183.631 93.5213 183.981 93.5213 184.375V189.898H92.1804ZM103.497 193.171C103.27 193.171 103.067 193.152 102.889 193.114C102.711 193.08 102.588 193.046 102.52 193.012L102.861 191.83C103.187 191.913 103.474 191.943 103.724 191.921C103.974 191.898 104.196 191.786 104.389 191.585C104.586 191.388 104.766 191.068 104.929 190.625L105.179 189.943L101.952 181.171H103.406L105.815 188.125H105.906L108.315 181.171H109.77L106.065 191.171C105.899 191.621 105.692 191.995 105.446 192.29C105.2 192.589 104.914 192.811 104.588 192.955C104.266 193.099 103.902 193.171 103.497 193.171ZM114.773 190.08C113.985 190.08 113.294 189.892 112.699 189.517C112.108 189.142 111.646 188.618 111.312 187.943C110.983 187.269 110.818 186.481 110.818 185.58C110.818 184.671 110.983 183.877 111.312 183.199C111.646 182.521 112.108 181.995 112.699 181.62C113.294 181.245 113.985 181.057 114.773 181.057C115.561 181.057 116.25 181.245 116.841 181.62C117.436 181.995 117.898 182.521 118.227 183.199C118.561 183.877 118.727 184.671 118.727 185.58C118.727 186.481 118.561 187.269 118.227 187.943C117.898 188.618 117.436 189.142 116.841 189.517C116.25 189.892 115.561 190.08 114.773 190.08ZM114.773 188.875C115.371 188.875 115.864 188.722 116.25 188.415C116.636 188.108 116.922 187.705 117.108 187.205C117.294 186.705 117.386 186.163 117.386 185.58C117.386 184.996 117.294 184.453 117.108 183.949C116.922 183.445 116.636 183.038 116.25 182.727C115.864 182.417 115.371 182.262 114.773 182.262C114.174 182.262 113.682 182.417 113.295 182.727C112.909 183.038 112.623 183.445 112.438 183.949C112.252 184.453 112.159 184.996 112.159 185.58C112.159 186.163 112.252 186.705 112.438 187.205C112.623 187.705 112.909 188.108 113.295 188.415C113.682 188.722 114.174 188.875 114.773 188.875ZM126.274 186.33V181.171H127.615V189.898H126.274V188.421H126.183C125.979 188.864 125.661 189.241 125.229 189.551C124.797 189.858 124.251 190.012 123.592 190.012C123.047 190.012 122.562 189.892 122.138 189.654C121.714 189.411 121.38 189.048 121.138 188.563C120.895 188.074 120.774 187.459 120.774 186.716V181.171H122.115V186.625C122.115 187.262 122.293 187.769 122.649 188.148C123.009 188.527 123.467 188.716 124.024 188.716C124.357 188.716 124.696 188.631 125.041 188.46C125.39 188.29 125.681 188.029 125.916 187.676C126.155 187.324 126.274 186.875 126.274 186.33ZM130.071 189.898V181.171H131.366V182.489H131.457C131.616 182.057 131.904 181.707 132.321 181.438C132.738 181.169 133.207 181.034 133.73 181.034C133.829 181.034 133.952 181.036 134.099 181.04C134.247 181.044 134.359 181.049 134.435 181.057V182.421C134.389 182.409 134.285 182.392 134.122 182.37C133.963 182.343 133.795 182.33 133.616 182.33C133.192 182.33 132.813 182.419 132.48 182.597C132.151 182.771 131.889 183.013 131.696 183.324C131.507 183.631 131.412 183.981 131.412 184.375V189.898H130.071ZM141.865 184.648V189.898H140.524V181.171H141.82V182.534H141.933C142.138 182.091 142.448 181.735 142.865 181.466C143.282 181.193 143.82 181.057 144.479 181.057C145.07 181.057 145.587 181.178 146.03 181.421C146.473 181.659 146.818 182.023 147.064 182.512C147.31 182.996 147.433 183.61 147.433 184.352V189.898H146.092V184.443C146.092 183.758 145.914 183.224 145.558 182.841C145.202 182.455 144.714 182.262 144.092 182.262C143.664 182.262 143.282 182.354 142.945 182.54C142.611 182.726 142.348 182.996 142.155 183.352C141.962 183.709 141.865 184.14 141.865 184.648ZM152.452 190.102C151.899 190.102 151.397 189.998 150.946 189.79C150.495 189.578 150.137 189.273 149.872 188.875C149.607 188.474 149.474 187.989 149.474 187.421C149.474 186.921 149.573 186.515 149.77 186.205C149.967 185.89 150.23 185.644 150.56 185.466C150.889 185.288 151.253 185.156 151.651 185.068C152.052 184.977 152.455 184.906 152.861 184.852C153.391 184.784 153.821 184.733 154.151 184.699C154.484 184.661 154.726 184.599 154.878 184.512C155.033 184.424 155.111 184.273 155.111 184.057V184.012C155.111 183.451 154.957 183.015 154.651 182.705C154.348 182.394 153.887 182.239 153.27 182.239C152.63 182.239 152.128 182.379 151.764 182.659C151.401 182.94 151.145 183.239 150.997 183.557L149.724 183.102C149.952 182.572 150.255 182.159 150.634 181.864C151.016 181.565 151.433 181.356 151.884 181.239C152.338 181.118 152.785 181.057 153.224 181.057C153.505 181.057 153.827 181.091 154.19 181.159C154.558 181.224 154.912 181.358 155.253 181.563C155.598 181.767 155.884 182.076 156.111 182.489C156.338 182.902 156.452 183.455 156.452 184.148V189.898H155.111V188.716H155.043C154.952 188.906 154.8 189.108 154.588 189.324C154.376 189.54 154.094 189.724 153.741 189.875C153.389 190.027 152.959 190.102 152.452 190.102ZM152.656 188.898C153.187 188.898 153.634 188.794 153.997 188.585C154.365 188.377 154.641 188.108 154.827 187.779C155.016 187.449 155.111 187.102 155.111 186.739V185.512C155.054 185.58 154.929 185.642 154.736 185.699C154.546 185.752 154.327 185.799 154.077 185.841C153.83 185.879 153.59 185.913 153.355 185.943C153.124 185.97 152.937 185.993 152.793 186.012C152.444 186.057 152.118 186.131 151.815 186.233C151.516 186.332 151.274 186.481 151.088 186.682C150.906 186.879 150.815 187.148 150.815 187.489C150.815 187.955 150.988 188.307 151.332 188.546C151.681 188.781 152.122 188.898 152.656 188.898ZM158.899 189.898V181.171H160.195V182.534H160.308C160.49 182.068 160.784 181.707 161.189 181.449C161.594 181.188 162.081 181.057 162.649 181.057C163.225 181.057 163.704 181.188 164.087 181.449C164.473 181.707 164.774 182.068 164.99 182.534H165.081C165.304 182.084 165.64 181.726 166.087 181.46C166.534 181.192 167.07 181.057 167.695 181.057C168.475 181.057 169.113 181.301 169.609 181.79C170.106 182.275 170.354 183.031 170.354 184.057V189.898H169.013V184.057C169.013 183.413 168.837 182.953 168.484 182.676C168.132 182.4 167.717 182.262 167.24 182.262C166.626 182.262 166.151 182.447 165.814 182.818C165.477 183.186 165.308 183.652 165.308 184.216V189.898H163.945V183.921C163.945 183.424 163.784 183.025 163.462 182.722C163.14 182.415 162.725 182.262 162.217 182.262C161.869 182.262 161.543 182.354 161.24 182.54C160.941 182.726 160.698 182.983 160.513 183.313C160.331 183.638 160.24 184.015 160.24 184.443V189.898H158.899ZM176.464 190.08C175.624 190.08 174.898 189.894 174.288 189.523C173.682 189.148 173.214 188.625 172.885 187.955C172.559 187.281 172.396 186.496 172.396 185.602C172.396 184.709 172.559 183.921 172.885 183.239C173.214 182.553 173.673 182.019 174.26 181.637C174.851 181.25 175.54 181.057 176.328 181.057C176.783 181.057 177.232 181.133 177.675 181.284C178.118 181.436 178.521 181.682 178.885 182.023C179.249 182.36 179.538 182.807 179.754 183.364C179.97 183.921 180.078 184.606 180.078 185.421V185.989H173.351V184.83H178.714C178.714 184.337 178.616 183.898 178.419 183.512C178.226 183.125 177.949 182.82 177.589 182.597C177.233 182.373 176.813 182.262 176.328 182.262C175.794 182.262 175.332 182.394 174.942 182.659C174.555 182.921 174.258 183.262 174.05 183.682C173.841 184.102 173.737 184.553 173.737 185.034V185.807C173.737 186.466 173.851 187.025 174.078 187.483C174.309 187.938 174.629 188.284 175.038 188.523C175.447 188.758 175.923 188.875 176.464 188.875C176.817 188.875 177.135 188.826 177.419 188.727C177.707 188.625 177.955 188.474 178.163 188.273C178.372 188.068 178.533 187.815 178.646 187.512L179.942 187.875C179.805 188.315 179.576 188.701 179.254 189.034C178.932 189.364 178.535 189.621 178.061 189.807C177.588 189.989 177.055 190.08 176.464 190.08Z" fill="#43505B"/>
</g>
<path d="M44.1186 240.898V230.716H50.5021V232.039H45.6548V235.141H50.169V236.458H45.6548V239.576H50.5618V240.898H44.1186ZM52.4348 240.898V233.262H53.8617V234.504H53.9561C54.1152 234.084 54.3754 233.755 54.7367 233.52C55.098 233.281 55.5305 233.162 56.0343 233.162C56.5447 233.162 56.9722 233.281 57.3169 233.52C57.665 233.759 57.9218 234.087 58.0875 234.504H58.1671C58.3494 234.097 58.6394 233.772 59.0371 233.53C59.4348 233.285 59.9088 233.162 60.459 233.162C61.1517 233.162 61.7168 233.379 62.1543 233.813C62.5951 234.248 62.8155 234.902 62.8155 235.777V240.898H61.329V235.916C61.329 235.399 61.1882 235.025 60.9064 234.793C60.6247 234.561 60.2883 234.445 59.8972 234.445C59.4133 234.445 59.0371 234.594 58.7686 234.892C58.5002 235.187 58.3659 235.567 58.3659 236.031V240.898H56.8844V235.822C56.8844 235.408 56.7551 235.075 56.4966 234.823C56.2381 234.571 55.9017 234.445 55.4874 234.445C55.2057 234.445 54.9455 234.519 54.7069 234.669C54.4715 234.814 54.281 235.018 54.1351 235.28C53.9926 235.542 53.9213 235.845 53.9213 236.19V240.898H52.4348ZM67.0302 241.067C66.5463 241.067 66.1088 240.977 65.7177 240.799C65.3266 240.616 65.0167 240.353 64.788 240.008C64.5626 239.663 64.4499 239.241 64.4499 238.74C64.4499 238.309 64.5328 237.955 64.6985 237.676C64.8642 237.398 65.0879 237.178 65.3697 237.015C65.6514 236.853 65.9663 236.73 66.3143 236.647C66.6623 236.564 67.0169 236.501 67.3782 236.458C67.8356 236.405 68.2068 236.362 68.4918 236.329C68.7769 236.293 68.984 236.235 69.1133 236.155C69.2425 236.076 69.3072 235.946 69.3072 235.767V235.732C69.3072 235.298 69.1845 234.962 68.9393 234.723C68.6973 234.485 68.3361 234.365 67.8555 234.365C67.355 234.365 66.9606 234.476 66.6722 234.698C66.3872 234.917 66.19 235.161 66.0806 235.429L64.6836 235.111C64.8493 234.647 65.0913 234.272 65.4094 233.987C65.7309 233.699 66.1005 233.49 66.5181 233.361C66.9357 233.228 67.3749 233.162 67.8356 233.162C68.1405 233.162 68.4637 233.199 68.805 233.272C69.1497 233.341 69.4712 233.47 69.7695 233.659C70.0711 233.848 70.3181 234.118 70.5103 234.47C70.7025 234.818 70.7987 235.27 70.7987 235.827V240.898H69.3469V239.854H69.2873C69.1912 240.046 69.047 240.235 68.8548 240.421C68.6625 240.606 68.4156 240.76 68.114 240.883C67.8124 241.006 67.4511 241.067 67.0302 241.067ZM67.3533 239.874C67.7643 239.874 68.1156 239.793 68.4073 239.63C68.7023 239.468 68.926 239.256 69.0785 238.994C69.2343 238.729 69.3121 238.445 69.3121 238.144V237.159C69.2591 237.212 69.1564 237.262 69.0039 237.308C68.8548 237.352 68.6841 237.39 68.4918 237.423C68.2996 237.453 68.1123 237.481 67.93 237.507C67.7478 237.531 67.5953 237.55 67.4727 237.567C67.1843 237.603 66.9208 237.665 66.6822 237.751C66.4469 237.837 66.2579 237.961 66.1154 238.124C65.9762 238.283 65.9066 238.495 65.9066 238.76C65.9066 239.128 66.0425 239.406 66.3143 239.595C66.5861 239.781 66.9324 239.874 67.3533 239.874ZM72.7786 240.898V233.262H74.2651V240.898H72.7786ZM73.5293 232.083C73.2708 232.083 73.0487 231.997 72.8631 231.825C72.6808 231.649 72.5897 231.44 72.5897 231.198C72.5897 230.953 72.6808 230.744 72.8631 230.572C73.0487 230.396 73.2708 230.308 73.5293 230.308C73.7878 230.308 74.0082 230.396 74.1905 230.572C74.3761 230.744 74.4689 230.953 74.4689 231.198C74.4689 231.44 74.3761 231.649 74.1905 231.825C74.0082 231.997 73.7878 232.083 73.5293 232.083ZM77.7514 230.716V240.898H76.2649V230.716H77.7514Z" fill="#0A2134"/>
<g filter="url(#filter2_d_4411_1509)">
<rect x="43" y="251.898" width="330" height="44" rx="8" fill="white"/>
<rect x="43.5" y="252.398" width="329" height="43" rx="7.5" stroke="#D0D5DD"/>
<path d="M58.4091 279.898V268.262H65.4318V269.512H59.8182V273.443H65.0682V274.693H59.8182V278.648H65.5227V279.898H58.4091ZM69.1307 274.648V279.898H67.7898V271.171H69.0852V272.534H69.1989C69.4034 272.091 69.714 271.735 70.1307 271.466C70.5473 271.193 71.0852 271.057 71.7443 271.057C72.3352 271.057 72.8523 271.178 73.2955 271.421C73.7386 271.659 74.0833 272.023 74.3295 272.512C74.5758 272.996 74.6989 273.61 74.6989 274.352V279.898H73.358V274.443C73.358 273.758 73.1799 273.224 72.8239 272.841C72.4678 272.455 71.9792 272.262 71.358 272.262C70.9299 272.262 70.5473 272.354 70.2102 272.54C69.8769 272.726 69.6136 272.996 69.4205 273.352C69.2273 273.709 69.1307 274.14 69.1307 274.648ZM80.9446 271.171V272.307H76.4219V271.171H80.9446ZM77.7401 269.08H79.081V277.398C79.081 277.777 79.1359 278.061 79.2457 278.25C79.3594 278.436 79.5033 278.561 79.6776 278.625C79.8556 278.686 80.0431 278.716 80.2401 278.716C80.3878 278.716 80.509 278.709 80.6037 278.693C80.6984 278.674 80.7741 278.659 80.831 278.648L81.1037 279.852C81.0128 279.887 80.8859 279.921 80.723 279.955C80.5601 279.993 80.3537 280.012 80.1037 280.012C79.7249 280.012 79.3537 279.93 78.9901 279.767C78.6302 279.604 78.331 279.356 78.0923 279.023C77.8575 278.69 77.7401 278.269 77.7401 277.762V269.08ZM86.527 280.08C85.6861 280.08 84.9607 279.894 84.3509 279.523C83.7448 279.148 83.277 278.625 82.9474 277.955C82.6217 277.281 82.4588 276.496 82.4588 275.602C82.4588 274.709 82.6217 273.921 82.9474 273.239C83.277 272.553 83.7353 272.019 84.3224 271.637C84.9134 271.25 85.6027 271.057 86.3906 271.057C86.8452 271.057 87.294 271.133 87.7372 271.284C88.1804 271.436 88.5838 271.682 88.9474 272.023C89.3111 272.36 89.6009 272.807 89.8168 273.364C90.0327 273.921 90.1406 274.606 90.1406 275.421V275.989H83.4134V274.83H88.777C88.777 274.337 88.6785 273.898 88.4815 273.512C88.2884 273.125 88.0118 272.82 87.652 272.597C87.2959 272.373 86.8755 272.262 86.3906 272.262C85.8565 272.262 85.3944 272.394 85.0043 272.659C84.6179 272.921 84.3205 273.262 84.1122 273.682C83.9039 274.102 83.7997 274.553 83.7997 275.034V275.807C83.7997 276.466 83.9134 277.025 84.1406 277.483C84.3717 277.938 84.6918 278.284 85.1009 278.523C85.5099 278.758 85.9853 278.875 86.527 278.875C86.8793 278.875 87.1974 278.826 87.4815 278.727C87.7694 278.625 88.0175 278.474 88.2259 278.273C88.4342 278.068 88.5952 277.815 88.7088 277.512L90.0043 277.875C89.8679 278.315 89.6387 278.701 89.3168 279.034C88.9948 279.364 88.5971 279.621 88.1236 279.807C87.6501 279.989 87.1179 280.08 86.527 280.08ZM92.1804 279.898V271.171H93.4759V272.489H93.5668C93.7259 272.057 94.0137 271.707 94.4304 271.438C94.8471 271.169 95.3168 271.034 95.8395 271.034C95.938 271.034 96.0611 271.036 96.2088 271.04C96.3565 271.044 96.4683 271.049 96.544 271.057V272.421C96.4986 272.409 96.3944 272.392 96.2315 272.37C96.0724 272.343 95.9039 272.33 95.7259 272.33C95.3016 272.33 94.9228 272.419 94.5895 272.597C94.2599 272.771 93.9986 273.013 93.8054 273.324C93.616 273.631 93.5213 273.981 93.5213 274.375V279.898H92.1804ZM103.497 283.171C103.27 283.171 103.067 283.152 102.889 283.114C102.711 283.08 102.588 283.046 102.52 283.012L102.861 281.83C103.187 281.913 103.474 281.943 103.724 281.921C103.974 281.898 104.196 281.786 104.389 281.585C104.586 281.388 104.766 281.068 104.929 280.625L105.179 279.943L101.952 271.171H103.406L105.815 278.125H105.906L108.315 271.171H109.77L106.065 281.171C105.899 281.621 105.692 281.995 105.446 282.29C105.2 282.589 104.914 282.811 104.588 282.955C104.266 283.099 103.902 283.171 103.497 283.171ZM114.773 280.08C113.985 280.08 113.294 279.892 112.699 279.517C112.108 279.142 111.646 278.618 111.312 277.943C110.983 277.269 110.818 276.481 110.818 275.58C110.818 274.671 110.983 273.877 111.312 273.199C111.646 272.521 112.108 271.995 112.699 271.62C113.294 271.245 113.985 271.057 114.773 271.057C115.561 271.057 116.25 271.245 116.841 271.62C117.436 271.995 117.898 272.521 118.227 273.199C118.561 273.877 118.727 274.671 118.727 275.58C118.727 276.481 118.561 277.269 118.227 277.943C117.898 278.618 117.436 279.142 116.841 279.517C116.25 279.892 115.561 280.08 114.773 280.08ZM114.773 278.875C115.371 278.875 115.864 278.722 116.25 278.415C116.636 278.108 116.922 277.705 117.108 277.205C117.294 276.705 117.386 276.163 117.386 275.58C117.386 274.996 117.294 274.453 117.108 273.949C116.922 273.445 116.636 273.038 116.25 272.727C115.864 272.417 115.371 272.262 114.773 272.262C114.174 272.262 113.682 272.417 113.295 272.727C112.909 273.038 112.623 273.445 112.438 273.949C112.252 274.453 112.159 274.996 112.159 275.58C112.159 276.163 112.252 276.705 112.438 277.205C112.623 277.705 112.909 278.108 113.295 278.415C113.682 278.722 114.174 278.875 114.773 278.875ZM126.274 276.33V271.171H127.615V279.898H126.274V278.421H126.183C125.979 278.864 125.661 279.241 125.229 279.551C124.797 279.858 124.251 280.012 123.592 280.012C123.047 280.012 122.562 279.892 122.138 279.654C121.714 279.411 121.38 279.048 121.138 278.563C120.895 278.074 120.774 277.459 120.774 276.716V271.171H122.115V276.625C122.115 277.262 122.293 277.769 122.649 278.148C123.009 278.527 123.467 278.716 124.024 278.716C124.357 278.716 124.696 278.631 125.041 278.46C125.39 278.29 125.681 278.029 125.916 277.676C126.155 277.324 126.274 276.875 126.274 276.33ZM130.071 279.898V271.171H131.366V272.489H131.457C131.616 272.057 131.904 271.707 132.321 271.438C132.738 271.169 133.207 271.034 133.73 271.034C133.829 271.034 133.952 271.036 134.099 271.04C134.247 271.044 134.359 271.049 134.435 271.057V272.421C134.389 272.409 134.285 272.392 134.122 272.37C133.963 272.343 133.795 272.33 133.616 272.33C133.192 272.33 132.813 272.419 132.48 272.597C132.151 272.771 131.889 273.013 131.696 273.324C131.507 273.631 131.412 273.981 131.412 274.375V279.898H130.071ZM140.706 279.898V268.262H147.729V269.512H142.115V273.443H147.365V274.693H142.115V278.648H147.82V279.898H140.706ZM150.087 279.898V271.171H151.382V272.534H151.496C151.678 272.068 151.971 271.707 152.376 271.449C152.782 271.188 153.268 271.057 153.837 271.057C154.412 271.057 154.892 271.188 155.274 271.449C155.661 271.707 155.962 272.068 156.178 272.534H156.268C156.492 272.084 156.827 271.726 157.274 271.46C157.721 271.192 158.257 271.057 158.882 271.057C159.662 271.057 160.301 271.301 160.797 271.79C161.293 272.275 161.541 273.031 161.541 274.057V279.898H160.2V274.057C160.2 273.413 160.024 272.953 159.672 272.676C159.32 272.4 158.905 272.262 158.428 272.262C157.814 272.262 157.339 272.447 157.001 272.818C156.664 273.186 156.496 273.652 156.496 274.216V279.898H155.132V273.921C155.132 273.424 154.971 273.025 154.649 272.722C154.327 272.415 153.912 272.262 153.405 272.262C153.056 272.262 152.731 272.354 152.428 272.54C152.128 272.726 151.886 272.983 151.7 273.313C151.518 273.638 151.428 274.015 151.428 274.443V279.898H150.087ZM166.561 280.102C166.008 280.102 165.506 279.998 165.055 279.79C164.605 279.578 164.247 279.273 163.982 278.875C163.716 278.474 163.584 277.989 163.584 277.421C163.584 276.921 163.682 276.515 163.879 276.205C164.076 275.89 164.339 275.644 164.669 275.466C164.999 275.288 165.362 275.156 165.76 275.068C166.161 274.977 166.565 274.906 166.97 274.852C167.5 274.784 167.93 274.733 168.26 274.699C168.593 274.661 168.836 274.599 168.987 274.512C169.143 274.424 169.22 274.273 169.22 274.057V274.012C169.22 273.451 169.067 273.015 168.76 272.705C168.457 272.394 167.997 272.239 167.379 272.239C166.739 272.239 166.237 272.379 165.874 272.659C165.51 272.94 165.254 273.239 165.107 273.557L163.834 273.102C164.061 272.572 164.364 272.159 164.743 271.864C165.125 271.565 165.542 271.356 165.993 271.239C166.447 271.118 166.894 271.057 167.334 271.057C167.614 271.057 167.936 271.091 168.3 271.159C168.667 271.224 169.021 271.358 169.362 271.563C169.707 271.767 169.993 272.076 170.22 272.489C170.447 272.902 170.561 273.455 170.561 274.148V279.898H169.22V278.716H169.152C169.061 278.906 168.91 279.108 168.697 279.324C168.485 279.54 168.203 279.724 167.851 279.875C167.499 280.027 167.069 280.102 166.561 280.102ZM166.766 278.898C167.296 278.898 167.743 278.794 168.107 278.585C168.474 278.377 168.75 278.108 168.936 277.779C169.125 277.449 169.22 277.102 169.22 276.739V275.512C169.163 275.58 169.038 275.642 168.845 275.699C168.656 275.752 168.436 275.799 168.186 275.841C167.94 275.879 167.699 275.913 167.464 275.943C167.233 275.97 167.046 275.993 166.902 276.012C166.554 276.057 166.228 276.131 165.925 276.233C165.625 276.332 165.383 276.481 165.197 276.682C165.016 276.879 164.925 277.148 164.925 277.489C164.925 277.955 165.097 278.307 165.442 278.546C165.79 278.781 166.232 278.898 166.766 278.898ZM173.009 279.898V271.171H174.349V279.898H173.009ZM173.69 269.716C173.429 269.716 173.204 269.627 173.014 269.449C172.829 269.271 172.736 269.057 172.736 268.807C172.736 268.557 172.829 268.343 173.014 268.165C173.204 267.987 173.429 267.898 173.69 267.898C173.952 267.898 174.175 267.987 174.361 268.165C174.55 268.343 174.645 268.557 174.645 268.807C174.645 269.057 174.55 269.271 174.361 269.449C174.175 269.627 173.952 269.716 173.69 269.716ZM178.146 268.262V279.898H176.805V268.262H178.146Z" fill="#43505B"/>
</g>
<g clip-path="url(#clip0_4411_1509)">
<path d="M44.1186 320.716H45.983L49.2244 328.631H49.3438L52.5852 320.716H54.4496V330.898H52.9879V323.53H52.8935L49.8906 330.883H48.6776L45.6747 323.525H45.5803V330.898H44.1186V320.716ZM59.7804 331.052C59.0645 331.052 58.4397 330.888 57.9061 330.56C57.3725 330.232 56.9582 329.773 56.6632 329.183C56.3682 328.593 56.2207 327.903 56.2207 327.115C56.2207 326.322 56.3682 325.63 56.6632 325.036C56.9582 324.443 57.3725 323.982 57.9061 323.654C58.4397 323.326 59.0645 323.162 59.7804 323.162C60.4963 323.162 61.121 323.326 61.6547 323.654C62.1883 323.982 62.6026 324.443 62.8975 325.036C63.1925 325.63 63.34 326.322 63.34 327.115C63.34 327.903 63.1925 328.593 62.8975 329.183C62.6026 329.773 62.1883 330.232 61.6547 330.56C61.121 330.888 60.4963 331.052 59.7804 331.052ZM59.7853 329.804C60.2493 329.804 60.6338 329.682 60.9387 329.436C61.2437 329.191 61.469 328.865 61.6149 328.457C61.764 328.049 61.8386 327.6 61.8386 327.11C61.8386 326.622 61.764 326.175 61.6149 325.767C61.469 325.356 61.2437 325.027 60.9387 324.778C60.6338 324.529 60.2493 324.405 59.7853 324.405C59.318 324.405 58.9302 324.529 58.622 324.778C58.3171 325.027 58.09 325.356 57.9409 325.767C57.795 326.175 57.7221 326.622 57.7221 327.11C57.7221 327.6 57.795 328.049 57.9409 328.457C58.09 328.865 58.3171 329.191 58.622 329.436C58.9302 329.682 59.318 329.804 59.7853 329.804ZM65.1186 330.898V320.716H66.6051V324.5H66.6946C66.7808 324.34 66.9051 324.156 67.0675 323.948C67.2299 323.739 67.4553 323.557 67.7436 323.401C68.032 323.242 68.4131 323.162 68.8871 323.162C69.5036 323.162 70.0537 323.318 70.5376 323.629C71.0215 323.941 71.401 324.39 71.6761 324.977C71.9545 325.563 72.0938 326.269 72.0938 327.095C72.0938 327.92 71.9562 328.628 71.6811 329.218C71.406 329.804 71.0282 330.257 70.5476 330.575C70.067 330.89 69.5185 331.047 68.902 331.047C68.438 331.047 68.0585 330.969 67.7635 330.813C67.4718 330.658 67.2431 330.475 67.0774 330.267C66.9117 330.058 66.7841 329.872 66.6946 329.71H66.5703V330.898H65.1186ZM66.5753 327.08C66.5753 327.617 66.6532 328.087 66.8089 328.492C66.9647 328.896 67.1901 329.213 67.4851 329.441C67.7801 329.667 68.1413 329.779 68.5689 329.779C69.013 329.779 69.3842 329.662 69.6825 329.426C69.9808 329.188 70.2062 328.865 70.3587 328.457C70.5144 328.049 70.5923 327.59 70.5923 327.08C70.5923 326.576 70.5161 326.124 70.3636 325.723C70.2145 325.321 69.9891 325.005 69.6875 324.773C69.3892 324.541 69.0163 324.425 68.5689 324.425C68.138 324.425 67.7734 324.536 67.4751 324.758C67.1802 324.98 66.9564 325.29 66.804 325.688C66.6515 326.085 66.5753 326.549 66.5753 327.08ZM73.763 330.898V323.262H75.2495V330.898H73.763ZM74.5137 322.083C74.2551 322.083 74.0331 321.997 73.8475 321.825C73.6652 321.649 73.574 321.44 73.574 321.198C73.574 320.953 73.6652 320.744 73.8475 320.572C74.0331 320.396 74.2551 320.308 74.5137 320.308C74.7722 320.308 74.9926 320.396 75.1749 320.572C75.3605 320.744 75.4533 320.953 75.4533 321.198C75.4533 321.44 75.3605 321.649 75.1749 321.825C74.9926 321.997 74.7722 322.083 74.5137 322.083ZM78.7358 320.716V330.898H77.2493V320.716H78.7358ZM84.0268 331.052C83.2744 331.052 82.6265 330.891 82.0829 330.57C81.5427 330.245 81.1251 329.789 80.8301 329.203C80.5384 328.613 80.3926 327.922 80.3926 327.129C80.3926 326.347 80.5384 325.658 80.8301 325.061C81.1251 324.465 81.536 323.999 82.063 323.664C82.5933 323.33 83.2131 323.162 83.9224 323.162C84.3533 323.162 84.7709 323.233 85.1752 323.376C85.5796 323.518 85.9425 323.742 86.264 324.047C86.5855 324.352 86.8391 324.748 87.0247 325.235C87.2103 325.719 87.3031 326.308 87.3031 327V327.527H81.2328V326.414H85.8464C85.8464 326.022 85.7669 325.676 85.6078 325.375C85.4487 325.07 85.225 324.829 84.9366 324.654C84.6516 324.478 84.3168 324.39 83.9324 324.39C83.5147 324.39 83.1502 324.493 82.8386 324.698C82.5304 324.901 82.2917 325.166 82.1227 325.494C81.957 325.819 81.8741 326.172 81.8741 326.553V327.423C81.8741 327.933 81.9636 328.367 82.1426 328.725C82.3249 329.083 82.5784 329.357 82.9032 329.546C83.228 329.731 83.6075 329.824 84.0417 329.824C84.3234 329.824 84.5803 329.784 84.8123 329.705C85.0443 329.622 85.2449 329.499 85.4139 329.337C85.5829 329.174 85.7122 328.974 85.8017 328.735L87.2086 328.989C87.0959 329.403 86.8938 329.766 86.6021 330.078C86.3137 330.386 85.9508 330.626 85.5133 330.799C85.0791 330.968 84.5836 331.052 84.0268 331.052ZM100.995 320.716V330.898H99.5829L94.4075 323.431H94.313V330.898H92.7768V320.716H94.1987L99.3791 328.193H99.4735V320.716H100.995ZM107.954 327.731V323.262H109.445V330.898H107.984V329.576H107.904C107.728 329.983 107.447 330.323 107.059 330.595C106.674 330.863 106.196 330.997 105.622 330.997C105.132 330.997 104.697 330.89 104.32 330.674C103.945 330.455 103.65 330.132 103.435 329.705C103.223 329.277 103.116 328.749 103.116 328.119V323.262H104.603V327.94C104.603 328.46 104.747 328.875 105.036 329.183C105.324 329.491 105.698 329.645 106.159 329.645C106.438 329.645 106.714 329.576 106.989 329.436C107.268 329.297 107.498 329.087 107.68 328.805C107.866 328.523 107.957 328.165 107.954 327.731ZM111.443 330.898V323.262H112.869V324.504H112.964C113.123 324.084 113.383 323.755 113.744 323.52C114.106 323.281 114.538 323.162 115.042 323.162C115.552 323.162 115.98 323.281 116.325 323.52C116.673 323.759 116.93 324.087 117.095 324.504H117.175C117.357 324.097 117.647 323.772 118.045 323.53C118.443 323.285 118.917 323.162 119.467 323.162C120.16 323.162 120.725 323.379 121.162 323.813C121.603 324.248 121.823 324.902 121.823 325.777V330.898H120.337V325.916C120.337 325.399 120.196 325.025 119.914 324.793C119.633 324.561 119.296 324.445 118.905 324.445C118.421 324.445 118.045 324.594 117.776 324.892C117.508 325.187 117.374 325.567 117.374 326.031V330.898H115.892V325.822C115.892 325.408 115.763 325.075 115.504 324.823C115.246 324.571 114.91 324.445 114.495 324.445C114.213 324.445 113.953 324.519 113.715 324.669C113.479 324.814 113.289 325.018 113.143 325.28C113 325.542 112.929 325.845 112.929 326.19V330.898H111.443ZM123.935 330.898V320.716H125.422V324.5H125.511C125.597 324.34 125.721 324.156 125.884 323.948C126.046 323.739 126.272 323.557 126.56 323.401C126.848 323.242 127.23 323.162 127.703 323.162C128.32 323.162 128.87 323.318 129.354 323.629C129.838 323.941 130.217 324.39 130.493 324.977C130.771 325.563 130.91 326.269 130.91 327.095C130.91 327.92 130.773 328.628 130.498 329.218C130.222 329.804 129.845 330.257 129.364 330.575C128.883 330.89 128.335 331.047 127.718 331.047C127.254 331.047 126.875 330.969 126.58 330.813C126.288 330.658 126.06 330.475 125.894 330.267C125.728 330.058 125.6 329.872 125.511 329.71H125.387V330.898H123.935ZM125.392 327.08C125.392 327.617 125.47 328.087 125.625 328.492C125.781 328.896 126.007 329.213 126.301 329.441C126.596 329.667 126.958 329.779 127.385 329.779C127.829 329.779 128.201 329.662 128.499 329.426C128.797 329.188 129.023 328.865 129.175 328.457C129.331 328.049 129.409 327.59 129.409 327.08C129.409 326.576 129.333 326.124 129.18 325.723C129.031 325.321 128.806 325.005 128.504 324.773C128.206 324.541 127.833 324.425 127.385 324.425C126.954 324.425 126.59 324.536 126.292 324.758C125.997 324.98 125.773 325.29 125.62 325.688C125.468 326.085 125.392 326.549 125.392 327.08ZM135.871 331.052C135.118 331.052 134.47 330.891 133.927 330.57C133.386 330.245 132.969 329.789 132.674 329.203C132.382 328.613 132.236 327.922 132.236 327.129C132.236 326.347 132.382 325.658 132.674 325.061C132.969 324.465 133.38 323.999 133.907 323.664C134.437 323.33 135.057 323.162 135.766 323.162C136.197 323.162 136.615 323.233 137.019 323.376C137.423 323.518 137.786 323.742 138.108 324.047C138.429 324.352 138.683 324.748 138.868 325.235C139.054 325.719 139.147 326.308 139.147 327V327.527H133.077V326.414H137.69C137.69 326.022 137.611 325.676 137.452 325.375C137.292 325.07 137.069 324.829 136.78 324.654C136.495 324.478 136.161 324.39 135.776 324.39C135.358 324.39 134.994 324.493 134.682 324.698C134.374 324.901 134.135 325.166 133.966 325.494C133.801 325.819 133.718 326.172 133.718 326.553V327.423C133.718 327.933 133.807 328.367 133.986 328.725C134.169 329.083 134.422 329.357 134.747 329.546C135.072 329.731 135.451 329.824 135.885 329.824C136.167 329.824 136.424 329.784 136.656 329.705C136.888 329.622 137.089 329.499 137.258 329.337C137.427 329.174 137.556 328.974 137.645 328.735L139.052 328.989C138.94 329.403 138.738 329.766 138.446 330.078C138.157 330.386 137.795 330.626 137.357 330.799C136.923 330.968 136.427 331.052 135.871 331.052ZM140.796 330.898V323.262H142.233V324.475H142.312C142.452 324.064 142.697 323.741 143.048 323.505C143.403 323.267 143.804 323.147 144.251 323.147C144.344 323.147 144.454 323.151 144.58 323.157C144.709 323.164 144.81 323.172 144.883 323.182V324.604C144.823 324.587 144.717 324.569 144.565 324.549C144.412 324.526 144.26 324.514 144.107 324.514C143.756 324.514 143.443 324.589 143.168 324.738C142.896 324.884 142.68 325.088 142.521 325.35C142.362 325.608 142.283 325.903 142.283 326.235V330.898H140.796Z" fill="#344054"/>
<g filter="url(#filter3_d_4411_1509)">
<g clip-path="url(#clip1_4411_1509)">
<rect x="43" y="341.898" width="330" height="44" rx="8" fill="white"/>
<path d="M61.6364 367.852V360.352H62.9091V367.852H61.6364ZM58.5227 364.739V363.466H66.0227V364.739H58.5227ZM72.456 358.102C72.9332 358.106 73.4105 358.197 73.8878 358.375C74.3651 358.553 74.8007 358.849 75.1946 359.262C75.5885 359.671 75.9048 360.229 76.1435 360.938C76.3821 361.646 76.5014 362.534 76.5014 363.602C76.5014 364.637 76.4029 365.555 76.206 366.358C76.0128 367.157 75.7325 367.832 75.3651 368.381C75.0014 368.93 74.5582 369.347 74.0355 369.631C73.5166 369.915 72.9295 370.057 72.2741 370.057C71.6226 370.057 71.0412 369.928 70.5298 369.671C70.0223 369.409 69.6056 369.048 69.2798 368.585C68.9579 368.12 68.7514 367.58 68.6605 366.966H70.0469C70.1719 367.5 70.42 367.942 70.7912 368.29C71.1662 368.635 71.6605 368.807 72.2741 368.807C73.1719 368.807 73.8802 368.415 74.3991 367.631C74.9219 366.847 75.1832 365.739 75.1832 364.307H75.0923C74.8802 364.625 74.6283 364.9 74.3366 365.131C74.045 365.362 73.7211 365.54 73.3651 365.665C73.009 365.79 72.6302 365.852 72.2287 365.852C71.562 365.852 70.9503 365.688 70.3935 365.358C69.8404 365.025 69.3973 364.568 69.0639 363.989C68.7344 363.406 68.5696 362.739 68.5696 361.989C68.5696 361.277 68.7287 360.625 69.0469 360.034C69.3688 359.44 69.8196 358.966 70.3991 358.614C70.9825 358.262 71.6681 358.091 72.456 358.102ZM72.456 359.352C71.9787 359.352 71.5488 359.472 71.1662 359.71C70.7874 359.945 70.4863 360.263 70.2628 360.665C70.0431 361.063 69.9332 361.504 69.9332 361.989C69.9332 362.474 70.0393 362.915 70.2514 363.313C70.4673 363.707 70.7609 364.021 71.1321 364.256C71.5071 364.487 71.9332 364.602 72.4105 364.602C72.7704 364.602 73.1056 364.532 73.4162 364.392C73.7268 364.248 73.9976 364.053 74.2287 363.807C74.4635 363.557 74.6473 363.275 74.7798 362.96C74.9124 362.642 74.9787 362.311 74.9787 361.966C74.9787 361.512 74.8688 361.085 74.6491 360.688C74.4332 360.29 74.134 359.968 73.7514 359.722C73.3726 359.476 72.9408 359.352 72.456 359.352ZM82.8267 358.262V369.898H81.4176V359.739H81.3494L78.5085 361.625V360.193L81.4176 358.262H82.8267Z" fill="#101828"/>
<path d="M90 361.398L95 366.398L100 361.398" stroke="#667085" stroke-width="1.66667" stroke-linecap="round" stroke-linejoin="round"/>
<path d="M118.409 369.898V358.262H125.432V359.512H119.818V363.443H125.068V364.693H119.818V368.648H125.523V369.898H118.409ZM129.131 364.648V369.898H127.79V361.171H129.085V362.534H129.199C129.403 362.091 129.714 361.735 130.131 361.466C130.547 361.193 131.085 361.057 131.744 361.057C132.335 361.057 132.852 361.178 133.295 361.421C133.739 361.659 134.083 362.023 134.33 362.512C134.576 362.996 134.699 363.61 134.699 364.352V369.898H133.358V364.443C133.358 363.758 133.18 363.224 132.824 362.841C132.468 362.455 131.979 362.262 131.358 362.262C130.93 362.262 130.547 362.354 130.21 362.54C129.877 362.726 129.614 362.996 129.42 363.352C129.227 363.709 129.131 364.14 129.131 364.648ZM140.945 361.171V362.307H136.422V361.171H140.945ZM137.74 359.08H139.081V367.398C139.081 367.777 139.136 368.061 139.246 368.25C139.359 368.436 139.503 368.561 139.678 368.625C139.856 368.686 140.043 368.716 140.24 368.716C140.388 368.716 140.509 368.709 140.604 368.693C140.698 368.674 140.774 368.659 140.831 368.648L141.104 369.852C141.013 369.887 140.886 369.921 140.723 369.955C140.56 369.993 140.354 370.012 140.104 370.012C139.725 370.012 139.354 369.93 138.99 369.767C138.63 369.604 138.331 369.356 138.092 369.023C137.857 368.69 137.74 368.269 137.74 367.762V359.08ZM146.527 370.08C145.686 370.08 144.961 369.894 144.351 369.523C143.745 369.148 143.277 368.625 142.947 367.955C142.622 367.281 142.459 366.496 142.459 365.602C142.459 364.709 142.622 363.921 142.947 363.239C143.277 362.553 143.735 362.019 144.322 361.637C144.913 361.25 145.603 361.057 146.391 361.057C146.845 361.057 147.294 361.133 147.737 361.284C148.18 361.436 148.584 361.682 148.947 362.023C149.311 362.36 149.601 362.807 149.817 363.364C150.033 363.921 150.141 364.606 150.141 365.421V365.989H143.413V364.83H148.777C148.777 364.337 148.679 363.898 148.482 363.512C148.288 363.125 148.012 362.82 147.652 362.597C147.296 362.373 146.875 362.262 146.391 362.262C145.857 362.262 145.394 362.394 145.004 362.659C144.618 362.921 144.321 363.262 144.112 363.682C143.904 364.102 143.8 364.553 143.8 365.034V365.807C143.8 366.466 143.913 367.025 144.141 367.483C144.372 367.938 144.692 368.284 145.101 368.523C145.51 368.758 145.985 368.875 146.527 368.875C146.879 368.875 147.197 368.826 147.482 368.727C147.769 368.625 148.018 368.474 148.226 368.273C148.434 368.068 148.595 367.815 148.709 367.512L150.004 367.875C149.868 368.315 149.639 368.701 149.317 369.034C148.995 369.364 148.597 369.621 148.124 369.807C147.65 369.989 147.118 370.08 146.527 370.08ZM152.18 369.898V361.171H153.476V362.489H153.567C153.726 362.057 154.014 361.707 154.43 361.438C154.847 361.169 155.317 361.034 155.839 361.034C155.938 361.034 156.061 361.036 156.209 361.04C156.357 361.044 156.468 361.049 156.544 361.057V362.421C156.499 362.409 156.394 362.392 156.232 362.37C156.072 362.343 155.904 362.33 155.726 362.33C155.302 362.33 154.923 362.419 154.589 362.597C154.26 362.771 153.999 363.013 153.805 363.324C153.616 363.631 153.521 363.981 153.521 364.375V369.898H152.18ZM163.497 373.171C163.27 373.171 163.067 373.152 162.889 373.114C162.711 373.08 162.588 373.046 162.52 373.012L162.861 371.83C163.187 371.913 163.474 371.943 163.724 371.921C163.974 371.898 164.196 371.786 164.389 371.585C164.586 371.388 164.766 371.068 164.929 370.625L165.179 369.943L161.952 361.171H163.406L165.815 368.125H165.906L168.315 361.171H169.77L166.065 371.171C165.899 371.621 165.692 371.995 165.446 372.29C165.2 372.589 164.914 372.811 164.588 372.955C164.266 373.099 163.902 373.171 163.497 373.171ZM174.773 370.08C173.985 370.08 173.294 369.892 172.699 369.517C172.108 369.142 171.646 368.618 171.312 367.943C170.983 367.269 170.818 366.481 170.818 365.58C170.818 364.671 170.983 363.877 171.312 363.199C171.646 362.521 172.108 361.995 172.699 361.62C173.294 361.245 173.985 361.057 174.773 361.057C175.561 361.057 176.25 361.245 176.841 361.62C177.436 361.995 177.898 362.521 178.227 363.199C178.561 363.877 178.727 364.671 178.727 365.58C178.727 366.481 178.561 367.269 178.227 367.943C177.898 368.618 177.436 369.142 176.841 369.517C176.25 369.892 175.561 370.08 174.773 370.08ZM174.773 368.875C175.371 368.875 175.864 368.722 176.25 368.415C176.636 368.108 176.922 367.705 177.108 367.205C177.294 366.705 177.386 366.163 177.386 365.58C177.386 364.996 177.294 364.453 177.108 363.949C176.922 363.445 176.636 363.038 176.25 362.727C175.864 362.417 175.371 362.262 174.773 362.262C174.174 362.262 173.682 362.417 173.295 362.727C172.909 363.038 172.623 363.445 172.438 363.949C172.252 364.453 172.159 364.996 172.159 365.58C172.159 366.163 172.252 366.705 172.438 367.205C172.623 367.705 172.909 368.108 173.295 368.415C173.682 368.722 174.174 368.875 174.773 368.875ZM186.274 366.33V361.171H187.615V369.898H186.274V368.421H186.183C185.979 368.864 185.661 369.241 185.229 369.551C184.797 369.858 184.251 370.012 183.592 370.012C183.047 370.012 182.562 369.892 182.138 369.654C181.714 369.411 181.38 369.048 181.138 368.563C180.895 368.074 180.774 367.459 180.774 366.716V361.171H182.115V366.625C182.115 367.262 182.293 367.769 182.649 368.148C183.009 368.527 183.467 368.716 184.024 368.716C184.357 368.716 184.696 368.631 185.041 368.46C185.39 368.29 185.681 368.029 185.916 367.676C186.155 367.324 186.274 366.875 186.274 366.33ZM190.071 369.898V361.171H191.366V362.489H191.457C191.616 362.057 191.904 361.707 192.321 361.438C192.738 361.169 193.207 361.034 193.73 361.034C193.829 361.034 193.952 361.036 194.099 361.04C194.247 361.044 194.359 361.049 194.435 361.057V362.421C194.389 362.409 194.285 362.392 194.122 362.37C193.963 362.343 193.795 362.33 193.616 362.33C193.192 362.33 192.813 362.419 192.48 362.597C192.151 362.771 191.889 363.013 191.696 363.324C191.507 363.631 191.412 363.981 191.412 364.375V369.898H190.071ZM200.524 369.898V361.171H201.82V362.534H201.933C202.115 362.068 202.409 361.707 202.814 361.449C203.219 361.188 203.706 361.057 204.274 361.057C204.85 361.057 205.329 361.188 205.712 361.449C206.098 361.707 206.399 362.068 206.615 362.534H206.706C206.929 362.084 207.265 361.726 207.712 361.46C208.159 361.192 208.695 361.057 209.32 361.057C210.1 361.057 210.738 361.301 211.234 361.79C211.731 362.275 211.979 363.031 211.979 364.057V369.898H210.638V364.057C210.638 363.413 210.462 362.953 210.109 362.676C209.757 362.4 209.342 362.262 208.865 362.262C208.251 362.262 207.776 362.447 207.439 362.818C207.102 363.186 206.933 363.652 206.933 364.216V369.898H205.57V363.921C205.57 363.424 205.409 363.025 205.087 362.722C204.765 362.415 204.35 362.262 203.842 362.262C203.494 362.262 203.168 362.354 202.865 362.54C202.566 362.726 202.323 362.983 202.138 363.313C201.956 363.638 201.865 364.015 201.865 364.443V369.898H200.524ZM217.976 370.08C217.188 370.08 216.497 369.892 215.902 369.517C215.311 369.142 214.849 368.618 214.516 367.943C214.186 367.269 214.021 366.481 214.021 365.58C214.021 364.671 214.186 363.877 214.516 363.199C214.849 362.521 215.311 361.995 215.902 361.62C216.497 361.245 217.188 361.057 217.976 361.057C218.764 361.057 219.453 361.245 220.044 361.62C220.639 361.995 221.101 362.521 221.43 363.199C221.764 363.877 221.93 364.671 221.93 365.58C221.93 366.481 221.764 367.269 221.43 367.943C221.101 368.618 220.639 369.142 220.044 369.517C219.453 369.892 218.764 370.08 217.976 370.08ZM217.976 368.875C218.574 368.875 219.067 368.722 219.453 368.415C219.839 368.108 220.125 367.705 220.311 367.205C220.497 366.705 220.589 366.163 220.589 365.58C220.589 364.996 220.497 364.453 220.311 363.949C220.125 363.445 219.839 363.038 219.453 362.727C219.067 362.417 218.574 362.262 217.976 362.262C217.377 362.262 216.885 362.417 216.499 362.727C216.112 363.038 215.826 363.445 215.641 363.949C215.455 364.453 215.362 364.996 215.362 365.58C215.362 366.163 215.455 366.705 215.641 367.205C215.826 367.705 216.112 368.108 216.499 368.415C216.885 368.722 217.377 368.875 217.976 368.875ZM224.159 369.898V358.262H225.5V362.557H225.614C225.712 362.406 225.848 362.212 226.023 361.977C226.201 361.739 226.455 361.527 226.784 361.341C227.117 361.152 227.568 361.057 228.136 361.057C228.871 361.057 229.519 361.241 230.08 361.608C230.64 361.976 231.078 362.496 231.392 363.171C231.706 363.845 231.864 364.64 231.864 365.557C231.864 366.481 231.706 367.282 231.392 367.96C231.078 368.635 230.642 369.157 230.085 369.529C229.528 369.896 228.886 370.08 228.159 370.08C227.598 370.08 227.15 369.987 226.812 369.801C226.475 369.612 226.216 369.398 226.034 369.159C225.852 368.917 225.712 368.716 225.614 368.557H225.455V369.898H224.159ZM225.477 365.534C225.477 366.193 225.574 366.775 225.767 367.279C225.96 367.779 226.242 368.171 226.614 368.455C226.985 368.735 227.439 368.875 227.977 368.875C228.538 368.875 229.006 368.727 229.381 368.432C229.759 368.133 230.044 367.731 230.233 367.227C230.426 366.72 230.523 366.156 230.523 365.534C230.523 364.921 230.428 364.368 230.239 363.875C230.053 363.379 229.771 362.987 229.392 362.699C229.017 362.407 228.545 362.262 227.977 362.262C227.432 362.262 226.973 362.4 226.602 362.676C226.231 362.949 225.951 363.332 225.761 363.824C225.572 364.313 225.477 364.883 225.477 365.534ZM233.915 369.898V361.171H235.256V369.898H233.915ZM234.597 359.716C234.335 359.716 234.11 359.627 233.92 359.449C233.735 359.271 233.642 359.057 233.642 358.807C233.642 358.557 233.735 358.343 233.92 358.165C234.11 357.987 234.335 357.898 234.597 357.898C234.858 357.898 235.081 357.987 235.267 358.165C235.456 358.343 235.551 358.557 235.551 358.807C235.551 359.057 235.456 359.271 235.267 359.449C235.081 359.627 234.858 359.716 234.597 359.716ZM239.053 358.262V369.898H237.712V358.262H239.053ZM245.168 370.08C244.327 370.08 243.601 369.894 242.991 369.523C242.385 369.148 241.918 368.625 241.588 367.955C241.262 367.281 241.099 366.496 241.099 365.602C241.099 364.709 241.262 363.921 241.588 363.239C241.918 362.553 242.376 362.019 242.963 361.637C243.554 361.25 244.243 361.057 245.031 361.057C245.486 361.057 245.935 361.133 246.378 361.284C246.821 361.436 247.224 361.682 247.588 362.023C247.952 362.36 248.241 362.807 248.457 363.364C248.673 363.921 248.781 364.606 248.781 365.421V365.989H242.054V364.83H247.418C247.418 364.337 247.319 363.898 247.122 363.512C246.929 363.125 246.652 362.82 246.293 362.597C245.937 362.373 245.516 362.262 245.031 362.262C244.497 362.262 244.035 362.394 243.645 362.659C243.259 362.921 242.961 363.262 242.753 363.682C242.545 364.102 242.44 364.553 242.44 365.034V365.807C242.44 366.466 242.554 367.025 242.781 367.483C243.012 367.938 243.332 368.284 243.741 368.523C244.151 368.758 244.626 368.875 245.168 368.875C245.52 368.875 245.838 368.826 246.122 368.727C246.41 368.625 246.658 368.474 246.866 368.273C247.075 368.068 247.236 367.815 247.349 367.512L248.645 367.875C248.509 368.315 248.279 368.701 247.957 369.034C247.635 369.364 247.238 369.621 246.764 369.807C246.291 369.989 245.759 370.08 245.168 370.08ZM256.662 364.648V369.898H255.321V361.171H256.616V362.534H256.73C256.935 362.091 257.245 361.735 257.662 361.466C258.079 361.193 258.616 361.057 259.276 361.057C259.866 361.057 260.384 361.178 260.827 361.421C261.27 361.659 261.615 362.023 261.861 362.512C262.107 362.996 262.23 363.61 262.23 364.352V369.898H260.889V364.443C260.889 363.758 260.711 363.224 260.355 362.841C259.999 362.455 259.51 362.262 258.889 362.262C258.461 362.262 258.079 362.354 257.741 362.54C257.408 362.726 257.145 362.996 256.952 363.352C256.759 363.709 256.662 364.14 256.662 364.648ZM270.18 366.33V361.171H271.521V369.898H270.18V368.421H270.089C269.885 368.864 269.567 369.241 269.135 369.551C268.703 369.858 268.158 370.012 267.499 370.012C266.953 370.012 266.468 369.892 266.044 369.654C265.62 369.411 265.286 369.048 265.044 368.563C264.802 368.074 264.68 367.459 264.68 366.716V361.171H266.021V366.625C266.021 367.262 266.199 367.769 266.555 368.148C266.915 368.527 267.374 368.716 267.93 368.716C268.264 368.716 268.603 368.631 268.947 368.46C269.296 368.29 269.588 368.029 269.822 367.676C270.061 367.324 270.18 366.875 270.18 366.33ZM273.977 369.898V361.171H275.273V362.534H275.386C275.568 362.068 275.862 361.707 276.267 361.449C276.672 361.188 277.159 361.057 277.727 361.057C278.303 361.057 278.782 361.188 279.165 361.449C279.551 361.707 279.852 362.068 280.068 362.534H280.159C280.383 362.084 280.718 361.726 281.165 361.46C281.612 361.192 282.148 361.057 282.773 361.057C283.553 361.057 284.191 361.301 284.688 361.79C285.184 362.275 285.432 363.031 285.432 364.057V369.898H284.091V364.057C284.091 363.413 283.915 362.953 283.562 362.676C283.21 362.4 282.795 362.262 282.318 362.262C281.705 362.262 281.229 362.447 280.892 362.818C280.555 363.186 280.386 363.652 280.386 364.216V369.898H279.023V363.921C279.023 363.424 278.862 363.025 278.54 362.722C278.218 362.415 277.803 362.262 277.295 362.262C276.947 362.262 276.621 362.354 276.318 362.54C276.019 362.726 275.777 362.983 275.591 363.313C275.409 363.638 275.318 364.015 275.318 364.443V369.898H273.977ZM288.065 369.898V358.262H289.406V362.557H289.52C289.618 362.406 289.755 362.212 289.929 361.977C290.107 361.739 290.361 361.527 290.69 361.341C291.024 361.152 291.474 361.057 292.043 361.057C292.777 361.057 293.425 361.241 293.986 361.608C294.546 361.976 294.984 362.496 295.298 363.171C295.613 363.845 295.77 364.64 295.77 365.557C295.77 366.481 295.613 367.282 295.298 367.96C294.984 368.635 294.548 369.157 293.991 369.529C293.435 369.896 292.793 370.08 292.065 370.08C291.505 370.08 291.056 369.987 290.719 369.801C290.382 369.612 290.122 369.398 289.94 369.159C289.759 368.917 289.618 368.716 289.52 368.557H289.361V369.898H288.065ZM289.384 365.534C289.384 366.193 289.48 366.775 289.673 367.279C289.866 367.779 290.149 368.171 290.52 368.455C290.891 368.735 291.346 368.875 291.884 368.875C292.444 368.875 292.912 368.727 293.287 368.432C293.666 368.133 293.95 367.731 294.139 367.227C294.332 366.72 294.429 366.156 294.429 365.534C294.429 364.921 294.334 364.368 294.145 363.875C293.959 363.379 293.677 362.987 293.298 362.699C292.923 362.407 292.452 362.262 291.884 362.262C291.338 362.262 290.88 362.4 290.509 362.676C290.137 362.949 289.857 363.332 289.668 363.824C289.478 364.313 289.384 364.883 289.384 365.534ZM301.48 370.08C300.639 370.08 299.914 369.894 299.304 369.523C298.698 369.148 298.23 368.625 297.901 367.955C297.575 367.281 297.412 366.496 297.412 365.602C297.412 364.709 297.575 363.921 297.901 363.239C298.23 362.553 298.688 362.019 299.276 361.637C299.866 361.25 300.556 361.057 301.344 361.057C301.798 361.057 302.247 361.133 302.69 361.284C303.134 361.436 303.537 361.682 303.901 362.023C304.264 362.36 304.554 362.807 304.77 363.364C304.986 363.921 305.094 364.606 305.094 365.421V365.989H298.366V364.83H303.73C303.73 364.337 303.632 363.898 303.435 363.512C303.241 363.125 302.965 362.82 302.605 362.597C302.249 362.373 301.829 362.262 301.344 362.262C300.81 362.262 300.348 362.394 299.957 362.659C299.571 362.921 299.274 363.262 299.065 363.682C298.857 364.102 298.753 364.553 298.753 365.034V365.807C298.753 366.466 298.866 367.025 299.094 367.483C299.325 367.938 299.645 368.284 300.054 368.523C300.463 368.758 300.938 368.875 301.48 368.875C301.832 368.875 302.151 368.826 302.435 368.727C302.723 368.625 302.971 368.474 303.179 368.273C303.387 368.068 303.548 367.815 303.662 367.512L304.957 367.875C304.821 368.315 304.592 368.701 304.27 369.034C303.948 369.364 303.55 369.621 303.077 369.807C302.603 369.989 302.071 370.08 301.48 370.08ZM307.134 369.898V361.171H308.429V362.489H308.52C308.679 362.057 308.967 361.707 309.384 361.438C309.8 361.169 310.27 361.034 310.793 361.034C310.891 361.034 311.014 361.036 311.162 361.04C311.31 361.044 311.421 361.049 311.497 361.057V362.421C311.452 362.409 311.348 362.392 311.185 362.37C311.026 362.343 310.857 362.33 310.679 362.33C310.255 362.33 309.876 362.419 309.543 362.597C309.213 362.771 308.952 363.013 308.759 363.324C308.569 363.631 308.474 363.981 308.474 364.375V369.898H307.134Z" fill="#667085"/>
</g>
<rect x="43.5" y="342.398" width="329" height="43" rx="7.5" stroke="#D0D5DD"/>
</g>
</g>
<g filter="url(#filter4_d_4411_1509)">
<g clip-path="url(#clip2_4411_1509)">
<g filter="url(#filter5_d_4411_1509)">
<rect x="43" y="409.898" width="330" height="44" rx="8" fill="url(#paint0_linear_4411_1509)"/>
<rect x="43.5" y="410.398" width="329" height="43" rx="7.5" stroke="url(#paint1_linear_4411_1509)"/>
<path d="M157.778 437.898V426.262H161.926C162.828 426.262 163.576 426.417 164.17 426.727C164.769 427.038 165.216 427.468 165.511 428.017C165.807 428.563 165.955 429.193 165.955 429.909C165.955 430.621 165.805 431.248 165.506 431.79C165.21 432.328 164.763 432.746 164.165 433.046C163.57 433.345 162.822 433.495 161.92 433.495H158.778V431.983H161.761C162.33 431.983 162.792 431.902 163.148 431.739C163.508 431.576 163.771 431.339 163.938 431.029C164.104 430.718 164.188 430.345 164.188 429.909C164.188 429.47 164.102 429.089 163.932 428.767C163.765 428.445 163.502 428.199 163.142 428.029C162.786 427.854 162.318 427.767 161.739 427.767H159.534V437.898H157.778ZM163.523 432.648L166.398 437.898H164.398L161.58 432.648H163.523ZM171.607 438.074C170.747 438.074 170.006 437.89 169.385 437.523C168.768 437.152 168.29 436.631 167.953 435.96C167.62 435.286 167.453 434.496 167.453 433.591C167.453 432.697 167.62 431.909 167.953 431.227C168.29 430.546 168.76 430.013 169.362 429.631C169.968 429.248 170.677 429.057 171.487 429.057C171.98 429.057 172.457 429.138 172.919 429.301C173.381 429.464 173.796 429.72 174.163 430.068C174.531 430.417 174.821 430.87 175.033 431.426C175.245 431.979 175.351 432.652 175.351 433.443V434.046H168.413V432.773H173.686C173.686 432.326 173.595 431.93 173.413 431.585C173.232 431.237 172.976 430.962 172.646 430.762C172.321 430.561 171.938 430.46 171.499 430.46C171.021 430.46 170.605 430.578 170.249 430.813C169.896 431.044 169.624 431.347 169.43 431.722C169.241 432.093 169.146 432.496 169.146 432.932V433.926C169.146 434.51 169.249 435.006 169.453 435.415C169.661 435.824 169.951 436.137 170.322 436.352C170.694 436.565 171.127 436.671 171.624 436.671C171.946 436.671 172.239 436.625 172.504 436.534C172.769 436.44 172.999 436.299 173.192 436.114C173.385 435.928 173.533 435.699 173.635 435.426L175.243 435.716C175.114 436.19 174.883 436.604 174.55 436.96C174.22 437.313 173.805 437.587 173.305 437.784C172.809 437.977 172.243 438.074 171.607 438.074ZM180.895 441.352C180.202 441.352 179.605 441.262 179.105 441.08C178.609 440.898 178.204 440.657 177.889 440.358C177.575 440.059 177.34 439.731 177.185 439.375L178.645 438.773C178.747 438.94 178.884 439.116 179.054 439.301C179.228 439.491 179.463 439.652 179.759 439.784C180.058 439.917 180.442 439.983 180.912 439.983C181.556 439.983 182.088 439.826 182.509 439.512C182.929 439.201 183.139 438.705 183.139 438.023V436.307H183.031C182.929 436.493 182.781 436.699 182.588 436.926C182.399 437.154 182.137 437.351 181.804 437.517C181.471 437.684 181.037 437.767 180.503 437.767C179.813 437.767 179.192 437.606 178.639 437.284C178.09 436.959 177.654 436.479 177.332 435.847C177.014 435.21 176.855 434.428 176.855 433.5C176.855 432.572 177.012 431.777 177.327 431.114C177.645 430.451 178.08 429.943 178.634 429.591C179.187 429.235 179.813 429.057 180.514 429.057C181.056 429.057 181.493 429.148 181.827 429.33C182.16 429.508 182.42 429.716 182.605 429.955C182.795 430.193 182.94 430.404 183.043 430.585H183.168V429.171H184.832V438.091C184.832 438.841 184.658 439.457 184.31 439.938C183.961 440.419 183.49 440.775 182.895 441.006C182.304 441.237 181.637 441.352 180.895 441.352ZM180.878 436.358C181.366 436.358 181.779 436.245 182.116 436.017C182.457 435.786 182.715 435.457 182.889 435.029C183.067 434.597 183.156 434.08 183.156 433.477C183.156 432.89 183.069 432.373 182.895 431.926C182.721 431.479 182.465 431.131 182.128 430.881C181.791 430.627 181.374 430.5 180.878 430.5C180.366 430.5 179.94 430.633 179.599 430.898C179.259 431.159 179.001 431.515 178.827 431.966C178.656 432.417 178.571 432.921 178.571 433.477C178.571 434.049 178.658 434.551 178.832 434.983C179.007 435.415 179.264 435.752 179.605 435.995C179.95 436.237 180.374 436.358 180.878 436.358ZM187.111 437.898V429.171H188.81V437.898H187.111ZM187.969 427.824C187.673 427.824 187.42 427.726 187.207 427.529C186.999 427.328 186.895 427.089 186.895 426.813C186.895 426.532 186.999 426.294 187.207 426.097C187.42 425.896 187.673 425.796 187.969 425.796C188.264 425.796 188.516 425.896 188.724 426.097C188.937 426.294 189.043 426.532 189.043 426.813C189.043 427.089 188.937 427.328 188.724 427.529C188.516 427.726 188.264 427.824 187.969 427.824ZM197.635 431.301L196.095 431.574C196.031 431.377 195.929 431.19 195.788 431.012C195.652 430.834 195.466 430.688 195.232 430.574C194.997 430.46 194.703 430.404 194.351 430.404C193.87 430.404 193.468 430.512 193.146 430.727C192.824 430.94 192.663 431.214 192.663 431.551C192.663 431.843 192.771 432.078 192.987 432.256C193.203 432.434 193.552 432.58 194.033 432.693L195.419 433.012C196.222 433.197 196.821 433.483 197.214 433.87C197.608 434.256 197.805 434.758 197.805 435.375C197.805 435.898 197.654 436.364 197.351 436.773C197.052 437.178 196.633 437.496 196.095 437.727C195.561 437.959 194.942 438.074 194.237 438.074C193.26 438.074 192.463 437.866 191.845 437.449C191.228 437.029 190.849 436.432 190.709 435.659L192.351 435.409C192.453 435.837 192.663 436.161 192.982 436.381C193.3 436.597 193.714 436.705 194.226 436.705C194.783 436.705 195.228 436.589 195.561 436.358C195.894 436.123 196.061 435.837 196.061 435.5C196.061 435.227 195.959 434.998 195.754 434.813C195.554 434.627 195.245 434.487 194.828 434.392L193.351 434.068C192.536 433.883 191.934 433.587 191.544 433.182C191.158 432.777 190.964 432.263 190.964 431.642C190.964 431.127 191.108 430.676 191.396 430.29C191.684 429.904 192.082 429.602 192.589 429.387C193.097 429.167 193.679 429.057 194.334 429.057C195.277 429.057 196.019 429.262 196.561 429.671C197.103 430.076 197.461 430.62 197.635 431.301ZM203.747 429.171V430.534H198.98V429.171H203.747ZM200.259 427.08H201.957V435.335C201.957 435.665 202.007 435.913 202.105 436.08C202.204 436.243 202.33 436.354 202.486 436.415C202.645 436.472 202.817 436.5 203.003 436.5C203.139 436.5 203.259 436.491 203.361 436.472C203.463 436.453 203.543 436.438 203.599 436.426L203.906 437.83C203.808 437.868 203.668 437.906 203.486 437.943C203.304 437.985 203.077 438.008 202.804 438.012C202.357 438.019 201.94 437.94 201.554 437.773C201.168 437.606 200.855 437.349 200.616 437C200.378 436.652 200.259 436.214 200.259 435.688V427.08ZM209.294 438.074C208.434 438.074 207.694 437.89 207.072 437.523C206.455 437.152 205.978 436.631 205.641 435.96C205.307 435.286 205.141 434.496 205.141 433.591C205.141 432.697 205.307 431.909 205.641 431.227C205.978 430.546 206.447 430.013 207.05 429.631C207.656 429.248 208.364 429.057 209.175 429.057C209.667 429.057 210.144 429.138 210.607 429.301C211.069 429.464 211.483 429.72 211.851 430.068C212.218 430.417 212.508 430.87 212.72 431.426C212.932 431.979 213.038 432.652 213.038 433.443V434.046H206.101V432.773H211.374C211.374 432.326 211.283 431.93 211.101 431.585C210.919 431.237 210.663 430.962 210.334 430.762C210.008 430.561 209.625 430.46 209.186 430.46C208.709 430.46 208.292 430.578 207.936 430.813C207.584 431.044 207.311 431.347 207.118 431.722C206.929 432.093 206.834 432.496 206.834 432.932V433.926C206.834 434.51 206.936 435.006 207.141 435.415C207.349 435.824 207.639 436.137 208.01 436.352C208.381 436.565 208.815 436.671 209.311 436.671C209.633 436.671 209.927 436.625 210.192 436.534C210.457 436.44 210.686 436.299 210.879 436.114C211.072 435.928 211.22 435.699 211.322 435.426L212.93 435.716C212.802 436.19 212.571 436.604 212.237 436.96C211.908 437.313 211.493 437.587 210.993 437.784C210.497 437.977 209.93 438.074 209.294 438.074ZM214.923 437.898V429.171H216.565V430.557H216.656C216.815 430.087 217.096 429.718 217.497 429.449C217.902 429.176 218.361 429.04 218.872 429.04C218.978 429.04 219.103 429.044 219.247 429.051C219.395 429.059 219.51 429.068 219.594 429.08V430.705C219.526 430.686 219.404 430.665 219.23 430.642C219.056 430.616 218.882 430.602 218.707 430.602C218.306 430.602 217.948 430.688 217.634 430.858C217.323 431.025 217.077 431.258 216.895 431.557C216.713 431.852 216.622 432.19 216.622 432.568V437.898H214.923ZM234.827 426.262V437.898H233.213L227.298 429.364H227.19V437.898H225.435V426.262H227.06L232.98 434.807H233.088V426.262H234.827ZM240.928 438.074C240.109 438.074 239.395 437.887 238.786 437.512C238.176 437.137 237.702 436.612 237.365 435.938C237.028 435.263 236.859 434.476 236.859 433.574C236.859 432.669 237.028 431.877 237.365 431.199C237.702 430.521 238.176 429.995 238.786 429.62C239.395 429.245 240.109 429.057 240.928 429.057C241.746 429.057 242.46 429.245 243.07 429.62C243.679 429.995 244.153 430.521 244.49 431.199C244.827 431.877 244.996 432.669 244.996 433.574C244.996 434.476 244.827 435.263 244.49 435.938C244.153 436.612 243.679 437.137 243.07 437.512C242.46 437.887 241.746 438.074 240.928 438.074ZM240.933 436.648C241.464 436.648 241.903 436.508 242.251 436.227C242.6 435.947 242.857 435.574 243.024 435.108C243.195 434.642 243.28 434.129 243.28 433.568C243.28 433.012 243.195 432.5 243.024 432.034C242.857 431.565 242.6 431.188 242.251 430.904C241.903 430.62 241.464 430.477 240.933 430.477C240.399 430.477 239.956 430.62 239.604 430.904C239.255 431.188 238.996 431.565 238.825 432.034C238.659 432.5 238.575 433.012 238.575 433.568C238.575 434.129 238.659 434.642 238.825 435.108C238.996 435.574 239.255 435.947 239.604 436.227C239.956 436.508 240.399 436.648 240.933 436.648ZM248.518 437.898L245.95 429.171H247.706L249.416 435.58H249.501L251.217 429.171H252.973L254.678 435.551H254.763L256.462 429.171H258.217L255.655 437.898H253.922L252.149 431.597H252.018L250.246 437.898H248.518Z" fill="white"/>
</g>
</g>
</g>
</g>
<defs>
<filter id="filter0_dd_4411_1509" x="0" y="0" width="416" height="497.898" filterUnits="userSpaceOnUse" color-interpolation-filters="sRGB">
<feFlood flood-opacity="0" result="BackgroundImageFix"/>
<feColorMatrix in="SourceAlpha" type="matrix" values="0 0 0 0 0 0 0 0 0 0 0 0 0 0 0 0 0 0 127 0" result="hardAlpha"/>
<feOffset dy="1"/>
<feGaussianBlur stdDeviation="1"/>
<feColorMatrix type="matrix" values="0 0 0 0 0.0627451 0 0 0 0 0.0941176 0 0 0 0 0.156863 0 0 0 0.06 0"/>
<feBlend mode="normal" in2="BackgroundImageFix" result="effect1_dropShadow_4411_1509"/>
<feColorMatrix in="SourceAlpha" type="matrix" values="0 0 0 0 0 0 0 0 0 0 0 0 0 0 0 0 0 0 127 0" result="hardAlpha"/>
<feOffset dy="1"/>
<feGaussianBlur stdDeviation="1.5"/>
<feColorMatrix type="matrix" values="0 0 0 0 0.0627451 0 0 0 0 0.0941176 0 0 0 0 0.156863 0 0 0 0.1 0"/>
<feBlend mode="normal" in2="effect1_dropShadow_4411_1509" result="effect2_dropShadow_4411_1509"/>
<feBlend mode="normal" in="SourceGraphic" in2="effect2_dropShadow_4411_1509" result="shape"/>
</filter>
<filter id="filter1_d_4411_1509" x="41" y="160.898" width="334" height="48" filterUnits="userSpaceOnUse" color-interpolation-filters="sRGB">
<feFlood flood-opacity="0" result="BackgroundImageFix"/>
<feColorMatrix in="SourceAlpha" type="matrix" values="0 0 0 0 0 0 0 0 0 0 0 0 0 0 0 0 0 0 127 0" result="hardAlpha"/>
<feOffset dy="1"/>
<feGaussianBlur stdDeviation="1"/>
<feColorMatrix type="matrix" values="0 0 0 0 0.0627451 0 0 0 0 0.0941176 0 0 0 0 0.156863 0 0 0 0.05 0"/>
<feBlend mode="normal" in2="BackgroundImageFix" result="effect1_dropShadow_4411_1509"/>
<feBlend mode="normal" in="SourceGraphic" in2="effect1_dropShadow_4411_1509" result="shape"/>
</filter>
<filter id="filter2_d_4411_1509" x="41" y="250.898" width="334" height="48" filterUnits="userSpaceOnUse" color-interpolation-filters="sRGB">
<feFlood flood-opacity="0" result="BackgroundImageFix"/>
<feColorMatrix in="SourceAlpha" type="matrix" values="0 0 0 0 0 0 0 0 0 0 0 0 0 0 0 0 0 0 127 0" result="hardAlpha"/>
<feOffset dy="1"/>
<feGaussianBlur stdDeviation="1"/>
<feColorMatrix type="matrix" values="0 0 0 0 0.0627451 0 0 0 0 0.0941176 0 0 0 0 0.156863 0 0 0 0.05 0"/>
<feBlend mode="normal" in2="BackgroundImageFix" result="effect1_dropShadow_4411_1509"/>
<feBlend mode="normal" in="SourceGraphic" in2="effect1_dropShadow_4411_1509" result="shape"/>
</filter>
<filter id="filter3_d_4411_1509" x="41" y="340.898" width="334" height="48" filterUnits="userSpaceOnUse" color-interpolation-filters="sRGB">
<feFlood flood-opacity="0" result="BackgroundImageFix"/>
<feColorMatrix in="SourceAlpha" type="matrix" values="0 0 0 0 0 0 0 0 0 0 0 0 0 0 0 0 0 0 127 0" result="hardAlpha"/>
<feOffset dy="1"/>
<feGaussianBlur stdDeviation="1"/>
<feColorMatrix type="matrix" values="0 0 0 0 0.0627451 0 0 0 0 0.0941176 0 0 0 0 0.156863 0 0 0 0.05 0"/>
<feBlend mode="normal" in2="BackgroundImageFix" result="effect1_dropShadow_4411_1509"/>
<feBlend mode="normal" in="SourceGraphic" in2="effect1_dropShadow_4411_1509" result="shape"/>
</filter>
<filter id="filter4_d_4411_1509" x="29" y="401.898" width="358" height="72" filterUnits="userSpaceOnUse" color-interpolation-filters="sRGB">
<feFlood flood-opacity="0" result="BackgroundImageFix"/>
<feColorMatrix in="SourceAlpha" type="matrix" values="0 0 0 0 0 0 0 0 0 0 0 0 0 0 0 0 0 0 127 0" result="hardAlpha"/>
<feOffset dy="6"/>
<feGaussianBlur stdDeviation="7"/>
<feComposite in2="hardAlpha" operator="out"/>
<feColorMatrix type="matrix" values="0 0 0 0 0.14902 0 0 0 0 0.6 0 0 0 0 0.984314 0 0 0 0.25 0"/>
<feBlend mode="normal" in2="BackgroundImageFix" result="effect1_dropShadow_4411_1509"/>
<feBlend mode="normal" in="SourceGraphic" in2="effect1_dropShadow_4411_1509" result="shape"/>
</filter>
<filter id="filter5_d_4411_1509" x="41" y="408.898" width="334" height="48" filterUnits="userSpaceOnUse" color-interpolation-filters="sRGB">
<feFlood flood-opacity="0" result="BackgroundImageFix"/>
<feColorMatrix in="SourceAlpha" type="matrix" values="0 0 0 0 0 0 0 0 0 0 0 0 0 0 0 0 0 0 127 0" result="hardAlpha"/>
<feOffset dy="1"/>
<feGaussianBlur stdDeviation="1"/>
<feColorMatrix type="matrix" values="0 0 0 0 0.0627451 0 0 0 0 0.0941176 0 0 0 0 0.156863 0 0 0 0.05 0"/>
<feBlend mode="normal" in2="BackgroundImageFix" result="effect1_dropShadow_4411_1509"/>
<feBlend mode="normal" in="SourceGraphic" in2="effect1_dropShadow_4411_1509" result="shape"/>
</filter>
<linearGradient id="paint0_linear_4411_1509" x1="20.6271" y1="409.898" x2="180.465" y2="488.816" gradientUnits="userSpaceOnUse">
<stop stop-color="#0ACEFE"/>
<stop offset="1" stop-color="#2699FB"/>
</linearGradient>
<linearGradient id="paint1_linear_4411_1509" x1="20.6271" y1="409.898" x2="180.465" y2="488.816" gradientUnits="userSpaceOnUse">
<stop stop-color="#0ACEFE"/>
<stop offset="1" stop-color="#2699FB"/>
</linearGradient>
<clipPath id="clip0_4411_1509">
<rect width="330" height="70" fill="white" transform="translate(43 315.898)"/>
</clipPath>
<clipPath id="clip1_4411_1509">
<rect x="43" y="341.898" width="330" height="44" rx="8" fill="white"/>
</clipPath>
<clipPath id="clip2_4411_1509">
<rect x="43" y="409.898" width="330" height="44" rx="8" fill="white"/>
</clipPath>
</defs>
</svg>
