<svg width="288" height="33" viewBox="0 0 288 33" fill="none" xmlns="http://www.w3.org/2000/svg">
<path d="M39.9375 9H42.25L47.6875 22.2812H47.875L53.3125 9H55.625V25H53.8125V12.8438H53.6563L48.6562 25H46.9063L41.9063 12.8438H41.75V25H39.9375V9ZM59.2598 25V13H61.1035V25H59.2598ZM60.1973 11C59.8379 11 59.528 10.8776 59.2676 10.6328C59.0124 10.388 58.8848 10.0938 58.8848 9.75C58.8848 9.40625 59.0124 9.11198 59.2676 8.86719C59.528 8.6224 59.8379 8.5 60.1973 8.5C60.5566 8.5 60.8639 8.6224 61.1191 8.86719C61.3796 9.11198 61.5098 9.40625 61.5098 9.75C61.5098 10.0938 61.3796 10.388 61.1191 10.6328C60.8639 10.8776 60.5566 11 60.1973 11ZM66.3242 17.7812V25H64.4805V13H66.2617V14.875H66.418C66.6992 14.2656 67.1263 13.776 67.6992 13.4063C68.2721 13.0313 69.0117 12.8438 69.918 12.8438C70.7305 12.8438 71.4414 13.0104 72.0508 13.3437C72.6602 13.6719 73.1341 14.1719 73.4727 14.8437C73.8112 15.5104 73.9805 16.3542 73.9805 17.375V25H72.1367V17.5C72.1367 16.5573 71.8919 15.8229 71.4023 15.2969C70.9128 14.7656 70.2409 14.5 69.3867 14.5C68.7982 14.5 68.2721 14.6276 67.8086 14.8828C67.3503 15.138 66.9883 15.5104 66.7227 16C66.457 16.4896 66.3242 17.0833 66.3242 17.7812ZM92.0371 15.6875L90.3809 16.1562C90.2767 15.8802 90.123 15.612 89.9199 15.3516C89.722 15.0859 89.4512 14.8672 89.1074 14.6953C88.7637 14.5234 88.3236 14.4375 87.7871 14.4375C87.0527 14.4375 86.4408 14.6068 85.9512 14.9453C85.4668 15.2786 85.2246 15.7031 85.2246 16.2187C85.2246 16.6771 85.3913 17.0391 85.7246 17.3047C86.0579 17.5703 86.5788 17.7917 87.2871 17.9687L89.0684 18.4063C90.1413 18.6667 90.9408 19.0651 91.4668 19.6016C91.9928 20.1328 92.2559 20.8177 92.2559 21.6562C92.2559 22.3437 92.0579 22.9583 91.6621 23.5C91.2715 24.0417 90.7246 24.4688 90.0215 24.7813C89.3184 25.0938 88.5007 25.25 87.5684 25.25C86.3444 25.25 85.3314 24.9844 84.5293 24.4531C83.7272 23.9219 83.2194 23.1458 83.0059 22.125L84.7559 21.6875C84.9225 22.3333 85.2376 22.8177 85.7012 23.1406C86.1699 23.4635 86.7819 23.625 87.5371 23.625C88.3965 23.625 89.0788 23.4427 89.584 23.0781C90.0944 22.7083 90.3496 22.2656 90.3496 21.75C90.3496 21.3333 90.2038 20.9844 89.9121 20.7031C89.6204 20.4167 89.1725 20.2031 88.5684 20.0625L86.5684 19.5937C85.4694 19.3333 84.6621 18.9297 84.1465 18.3828C83.6361 17.8307 83.3809 17.1406 83.3809 16.3125C83.3809 15.6354 83.571 15.0365 83.9512 14.5156C84.3366 13.9948 84.86 13.5859 85.5215 13.2891C86.1882 12.9922 86.9434 12.8438 87.7871 12.8438C88.9746 12.8438 89.9069 13.1042 90.584 13.625C91.2663 14.1458 91.7507 14.8333 92.0371 15.6875ZM98.5625 25.2813C97.8021 25.2813 97.112 25.138 96.4922 24.8516C95.8724 24.5599 95.3802 24.1406 95.0156 23.5938C94.651 23.0417 94.4688 22.375 94.4688 21.5937C94.4688 20.9062 94.6042 20.349 94.875 19.9219C95.1458 19.4896 95.5078 19.151 95.9609 18.9062C96.4141 18.6615 96.9141 18.4792 97.4609 18.3594C98.013 18.2344 98.5677 18.1354 99.125 18.0625C99.8542 17.9687 100.445 17.8984 100.898 17.8516C101.357 17.7995 101.69 17.7135 101.898 17.5937C102.112 17.474 102.219 17.2656 102.219 16.9687V16.9062C102.219 16.1354 102.008 15.5365 101.586 15.1094C101.169 14.6823 100.536 14.4687 99.6875 14.4687C98.8073 14.4687 98.1172 14.6615 97.6172 15.0469C97.1172 15.4323 96.7656 15.8437 96.5625 16.2812L94.8125 15.6562C95.125 14.9271 95.5417 14.3594 96.0625 13.9531C96.5885 13.5417 97.1615 13.2552 97.7813 13.0937C98.4063 12.9271 99.0208 12.8438 99.625 12.8438C100.01 12.8438 100.453 12.8906 100.953 12.9844C101.458 13.0729 101.945 13.2578 102.414 13.5391C102.888 13.8203 103.281 14.2448 103.594 14.8125C103.906 15.3802 104.063 16.1406 104.063 17.0938V25H102.219V23.375H102.125C102 23.6354 101.792 23.9141 101.5 24.2109C101.208 24.5078 100.82 24.7604 100.336 24.9687C99.8516 25.1771 99.2604 25.2813 98.5625 25.2813ZM98.8438 23.625C99.5729 23.625 100.188 23.4818 100.688 23.1953C101.193 22.9089 101.573 22.5391 101.828 22.0859C102.089 21.6328 102.219 21.1562 102.219 20.6562V18.9687C102.141 19.0625 101.969 19.1484 101.703 19.2266C101.443 19.2995 101.141 19.3646 100.797 19.4219C100.458 19.474 100.128 19.5208 99.8047 19.5625C99.487 19.599 99.2292 19.6302 99.0313 19.6562C98.5521 19.7187 98.1042 19.8203 97.6875 19.9609C97.276 20.0964 96.9427 20.3021 96.6875 20.5781C96.4375 20.849 96.3125 21.2187 96.3125 21.6875C96.3125 22.3281 96.5495 22.8125 97.0234 23.1406C97.5026 23.4635 98.1094 23.625 98.8438 23.625ZM109.271 9V25H107.428V9H109.271ZM116.18 25.2813C115.419 25.2813 114.729 25.138 114.109 24.8516C113.49 24.5599 112.997 24.1406 112.633 23.5938C112.268 23.0417 112.086 22.375 112.086 21.5937C112.086 20.9062 112.221 20.349 112.492 19.9219C112.763 19.4896 113.125 19.151 113.578 18.9062C114.031 18.6615 114.531 18.4792 115.078 18.3594C115.63 18.2344 116.185 18.1354 116.742 18.0625C117.471 17.9687 118.063 17.8984 118.516 17.8516C118.974 17.7995 119.307 17.7135 119.516 17.5937C119.729 17.474 119.836 17.2656 119.836 16.9687V16.9062C119.836 16.1354 119.625 15.5365 119.203 15.1094C118.786 14.6823 118.154 14.4687 117.305 14.4687C116.424 14.4687 115.734 14.6615 115.234 15.0469C114.734 15.4323 114.383 15.8437 114.18 16.2812L112.43 15.6562C112.742 14.9271 113.159 14.3594 113.68 13.9531C114.206 13.5417 114.779 13.2552 115.398 13.0937C116.023 12.9271 116.638 12.8438 117.242 12.8438C117.628 12.8438 118.07 12.8906 118.57 12.9844C119.076 13.0729 119.563 13.2578 120.031 13.5391C120.505 13.8203 120.898 14.2448 121.211 14.8125C121.523 15.3802 121.68 16.1406 121.68 17.0938V25H119.836V23.375H119.742C119.617 23.6354 119.409 23.9141 119.117 24.2109C118.826 24.5078 118.438 24.7604 117.953 24.9687C117.469 25.1771 116.878 25.2813 116.18 25.2813ZM116.461 23.625C117.19 23.625 117.805 23.4818 118.305 23.1953C118.81 22.9089 119.19 22.5391 119.445 22.0859C119.706 21.6328 119.836 21.1562 119.836 20.6562V18.9687C119.758 19.0625 119.586 19.1484 119.32 19.2266C119.06 19.2995 118.758 19.3646 118.414 19.4219C118.076 19.474 117.745 19.5208 117.422 19.5625C117.104 19.599 116.846 19.6302 116.648 19.6562C116.169 19.7187 115.721 19.8203 115.305 19.9609C114.893 20.0964 114.56 20.3021 114.305 20.5781C114.055 20.849 113.93 21.2187 113.93 21.6875C113.93 22.3281 114.167 22.8125 114.641 23.1406C115.12 23.4635 115.727 23.625 116.461 23.625ZM125.045 25V13H126.826V14.8125H126.951C127.17 14.2188 127.566 13.737 128.139 13.3672C128.712 12.9974 129.357 12.8125 130.076 12.8125C130.212 12.8125 130.381 12.8151 130.584 12.8203C130.787 12.8255 130.941 12.8333 131.045 12.8438V14.7187C130.982 14.7031 130.839 14.6797 130.615 14.6484C130.396 14.612 130.165 14.5937 129.92 14.5937C129.337 14.5937 128.816 14.7161 128.357 14.9609C127.904 15.2005 127.545 15.5339 127.279 15.9609C127.019 16.3828 126.889 16.8646 126.889 17.4062V25H125.045ZM134.783 29.5C134.471 29.5 134.192 29.474 133.947 29.4219C133.702 29.375 133.533 29.3281 133.439 29.2813L133.908 27.6563C134.356 27.7708 134.752 27.8125 135.096 27.7812C135.439 27.75 135.744 27.5964 136.01 27.3203C136.281 27.0495 136.528 26.6094 136.752 26L137.096 25.0625L132.658 13H134.658L137.971 22.5625H138.096L141.408 13H143.408L138.314 26.75C138.085 27.3698 137.801 27.8828 137.463 28.2891C137.124 28.7005 136.731 29.0052 136.283 29.2031C135.84 29.401 135.34 29.5 134.783 29.5ZM156.904 25.25C155.821 25.25 154.87 24.9922 154.053 24.4766C153.24 23.9609 152.605 23.2396 152.146 22.3125C151.693 21.3854 151.467 20.3021 151.467 19.0625C151.467 17.8125 151.693 16.7214 152.146 15.7891C152.605 14.8568 153.24 14.1328 154.053 13.6172C154.87 13.1016 155.821 12.8438 156.904 12.8438C157.988 12.8438 158.936 13.1016 159.748 13.6172C160.566 14.1328 161.201 14.8568 161.654 15.7891C162.113 16.7214 162.342 17.8125 162.342 19.0625C162.342 20.3021 162.113 21.3854 161.654 22.3125C161.201 23.2396 160.566 23.9609 159.748 24.4766C158.936 24.9922 157.988 25.25 156.904 25.25ZM156.904 23.5938C157.727 23.5938 158.404 23.3828 158.936 22.9609C159.467 22.5391 159.86 21.9844 160.115 21.2969C160.37 20.6094 160.498 19.8646 160.498 19.0625C160.498 18.2604 160.37 17.513 160.115 16.8203C159.86 16.1276 159.467 15.5677 158.936 15.1406C158.404 14.7135 157.727 14.5 156.904 14.5C156.081 14.5 155.404 14.7135 154.873 15.1406C154.342 15.5677 153.949 16.1276 153.693 16.8203C153.438 17.513 153.311 18.2604 153.311 19.0625C153.311 19.8646 153.438 20.6094 153.693 21.2969C153.949 21.9844 154.342 22.5391 154.873 22.9609C155.404 23.3828 156.081 23.5938 156.904 23.5938ZM170.5 13V14.5625H164.031V13H170.5ZM165.969 25V11.3438C165.969 10.6562 166.13 10.0833 166.453 9.625C166.776 9.16667 167.195 8.82292 167.711 8.59375C168.227 8.36458 168.771 8.25 169.344 8.25C169.797 8.25 170.167 8.28646 170.453 8.35937C170.74 8.43229 170.953 8.5 171.094 8.5625L170.563 10.1562C170.469 10.125 170.339 10.0859 170.172 10.0391C170.01 9.99219 169.797 9.96875 169.531 9.96875C168.922 9.96875 168.482 10.1224 168.211 10.4297C167.945 10.737 167.813 11.1875 167.813 11.7812V25H165.969ZM179.521 25V9H184.928C186.178 9 187.204 9.21354 188.006 9.64062C188.808 10.0625 189.402 10.6432 189.787 11.3828C190.173 12.1224 190.365 12.9635 190.365 13.9062C190.365 14.849 190.173 15.6849 189.787 16.4141C189.402 17.1432 188.811 17.7161 188.014 18.1328C187.217 18.5443 186.199 18.75 184.959 18.75H180.584V17H184.896C185.751 17 186.438 16.875 186.959 16.625C187.485 16.375 187.865 16.0208 188.1 15.5625C188.339 15.099 188.459 14.5469 188.459 13.9062C188.459 13.2656 188.339 12.7057 188.1 12.2266C187.86 11.7474 187.477 11.3776 186.951 11.1172C186.425 10.8516 185.73 10.7187 184.865 10.7187H181.459V25H179.521ZM187.053 17.8125L190.99 25H188.74L184.865 17.8125H187.053ZM201.844 15.6875L200.188 16.1562C200.083 15.8802 199.93 15.612 199.727 15.3516C199.529 15.0859 199.258 14.8672 198.914 14.6953C198.57 14.5234 198.13 14.4375 197.594 14.4375C196.859 14.4375 196.247 14.6068 195.758 14.9453C195.273 15.2786 195.031 15.7031 195.031 16.2187C195.031 16.6771 195.198 17.0391 195.531 17.3047C195.865 17.5703 196.385 17.7917 197.094 17.9687L198.875 18.4063C199.948 18.6667 200.747 19.0651 201.273 19.6016C201.799 20.1328 202.063 20.8177 202.063 21.6562C202.063 22.3437 201.865 22.9583 201.469 23.5C201.078 24.0417 200.531 24.4688 199.828 24.7813C199.125 25.0938 198.307 25.25 197.375 25.25C196.151 25.25 195.138 24.9844 194.336 24.4531C193.534 23.9219 193.026 23.1458 192.813 22.125L194.563 21.6875C194.729 22.3333 195.044 22.8177 195.508 23.1406C195.977 23.4635 196.589 23.625 197.344 23.625C198.203 23.625 198.885 23.4427 199.391 23.0781C199.901 22.7083 200.156 22.2656 200.156 21.75C200.156 21.3333 200.01 20.9844 199.719 20.7031C199.427 20.4167 198.979 20.2031 198.375 20.0625L196.375 19.5937C195.276 19.3333 194.469 18.9297 193.953 18.3828C193.443 17.8307 193.188 17.1406 193.188 16.3125C193.188 15.6354 193.378 15.0365 193.758 14.5156C194.143 13.9948 194.667 13.5859 195.328 13.2891C195.995 12.9922 196.75 12.8438 197.594 12.8438C198.781 12.8438 199.714 13.1042 200.391 13.625C201.073 14.1458 201.557 14.8333 201.844 15.6875ZM210.619 21.7187V20.125L217.65 9H218.807V11.4688H218.025L212.713 19.875V20H222.182V21.7187H210.619ZM218.15 25V21.2344V20.4922V9H219.994V25H218.15ZM225.732 25.125C225.347 25.125 225.016 24.987 224.74 24.7109C224.464 24.4349 224.326 24.1042 224.326 23.7187C224.326 23.3333 224.464 23.0026 224.74 22.7266C225.016 22.4505 225.347 22.3125 225.732 22.3125C226.118 22.3125 226.449 22.4505 226.725 22.7266C227.001 23.0026 227.139 23.3333 227.139 23.7187C227.139 23.974 227.074 24.2083 226.943 24.4219C226.818 24.6354 226.649 24.8073 226.436 24.9375C226.227 25.0625 225.993 25.125 225.732 25.125ZM235.094 25.2187C234.177 25.2187 233.352 25.0365 232.617 24.6719C231.883 24.3073 231.294 23.8073 230.852 23.1719C230.409 22.5365 230.167 21.8125 230.125 21H232C232.073 21.724 232.401 22.3229 232.984 22.7969C233.573 23.2656 234.276 23.5 235.094 23.5C235.75 23.5 236.333 23.3464 236.844 23.0391C237.359 22.7318 237.763 22.3099 238.055 21.7734C238.352 21.2318 238.5 20.6198 238.5 19.9375C238.5 19.2396 238.346 18.6172 238.039 18.0703C237.737 17.5182 237.32 17.0833 236.789 16.7656C236.258 16.4479 235.651 16.2865 234.969 16.2812C234.479 16.276 233.977 16.3516 233.461 16.5078C232.945 16.6589 232.521 16.8542 232.188 17.0938L230.375 16.875L231.344 9H239.656V10.7187H232.969L232.406 15.4375H232.5C232.828 15.1771 233.24 14.9609 233.734 14.7891C234.229 14.6172 234.745 14.5312 235.281 14.5312C236.26 14.5312 237.133 14.7656 237.898 15.2344C238.669 15.6979 239.273 16.3333 239.711 17.1406C240.154 17.9479 240.375 18.8698 240.375 19.9062C240.375 20.9271 240.146 21.8385 239.687 22.6406C239.234 23.4375 238.609 24.0677 237.813 24.5312C237.016 24.9896 236.109 25.2187 235.094 25.2187ZM249.947 25V9H251.885V23.2812H259.322V25H249.947ZM262.322 25V9H267.729C268.984 9 270.01 9.22656 270.807 9.67969C271.609 10.1276 272.202 10.7344 272.588 11.5C272.973 12.2656 273.166 13.1198 273.166 14.0625C273.166 15.0052 272.973 15.862 272.588 16.6328C272.208 17.4036 271.619 18.0182 270.822 18.4766C270.025 18.9297 269.005 19.1562 267.76 19.1562H263.885V17.4375H267.697C268.557 17.4375 269.247 17.2891 269.768 16.9922C270.288 16.6953 270.666 16.2943 270.9 15.7891C271.14 15.2786 271.26 14.7031 271.26 14.0625C271.26 13.4219 271.14 12.849 270.9 12.3437C270.666 11.8385 270.286 11.4427 269.76 11.1562C269.234 10.8646 268.536 10.7187 267.666 10.7187H264.26V25H262.322ZM275.311 25H273.279L279.154 9H281.154L287.029 25H284.998L280.217 11.5312H280.092L275.311 25ZM276.061 18.75H284.248V20.4687H276.061V18.75Z" fill="#0A2134"/>
<circle cx="12" cy="17" r="12" fill="#2699FB"/>
<path d="M16.6673 13.5L10.2507 19.9167L7.33398 17" stroke="white" stroke-width="2" stroke-linecap="round" stroke-linejoin="round"/>
</svg>
