<svg width="288" height="33" viewBox="0 0 288 33" fill="none" xmlns="http://www.w3.org/2000/svg">
<path d="M44.6562 25.2187C43.7396 25.2187 42.9141 25.0365 42.1797 24.6719C41.4453 24.3073 40.8568 23.8073 40.4141 23.1719C39.9714 22.5365 39.7292 21.8125 39.6875 21H41.5625C41.6354 21.724 41.9635 22.3229 42.5469 22.7969C43.1354 23.2656 43.8385 23.5 44.6562 23.5C45.3125 23.5 45.8958 23.3464 46.4063 23.0391C46.9219 22.7318 47.3255 22.3099 47.6172 21.7734C47.9141 21.2318 48.0625 20.6198 48.0625 19.9375C48.0625 19.2396 47.9089 18.6172 47.6016 18.0703C47.2995 17.5182 46.8828 17.0833 46.3516 16.7656C45.8203 16.4479 45.2135 16.2865 44.5312 16.2812C44.0417 16.276 43.5391 16.3516 43.0234 16.5078C42.5078 16.6589 42.0833 16.8542 41.75 17.0938L39.9375 16.875L40.9063 9H49.2188V10.7187H42.5313L41.9688 15.4375H42.0625C42.3906 15.1771 42.8021 14.9609 43.2969 14.7891C43.7917 14.6172 44.3073 14.5312 44.8438 14.5312C45.8229 14.5312 46.6953 14.7656 47.4609 15.2344C48.2318 15.6979 48.8359 16.3333 49.2734 17.1406C49.7161 17.9479 49.9375 18.8698 49.9375 19.9062C49.9375 20.9271 49.7083 21.8385 49.25 22.6406C48.7969 23.4375 48.1719 24.0677 47.375 24.5312C46.5781 24.9896 45.6719 25.2187 44.6562 25.2187ZM58.2598 25.2187C57.0827 25.2187 56.0801 24.8984 55.252 24.2578C54.4238 23.612 53.791 22.6771 53.3535 21.4531C52.916 20.224 52.6973 18.7396 52.6973 17C52.6973 15.2708 52.916 13.7943 53.3535 12.5703C53.7962 11.3411 54.4316 10.4036 55.2598 9.75781C56.0931 9.10677 57.0931 8.78125 58.2598 8.78125C59.4264 8.78125 60.4238 9.10677 61.252 9.75781C62.0853 10.4036 62.7207 11.3411 63.1582 12.5703C63.6009 13.7943 63.8223 15.2708 63.8223 17C63.8223 18.7396 63.6035 20.224 63.166 21.4531C62.7285 22.6771 62.0957 23.612 61.2676 24.2578C60.4395 24.8984 59.4368 25.2187 58.2598 25.2187ZM58.2598 23.5C59.4264 23.5 60.3327 22.9375 60.9785 21.8125C61.6243 20.6875 61.9473 19.0833 61.9473 17C61.9473 15.6146 61.7988 14.4349 61.502 13.4609C61.2103 12.487 60.7884 11.7448 60.2363 11.2344C59.6895 10.724 59.0306 10.4687 58.2598 10.4687C57.1035 10.4687 56.1999 11.0391 55.5488 12.1797C54.8978 13.3151 54.5723 14.9219 54.5723 17C54.5723 18.3854 54.7181 19.5625 55.0098 20.5312C55.3014 21.5 55.7207 22.237 56.2676 22.7422C56.8197 23.2474 57.4837 23.5 58.2598 23.5ZM81.5098 15.6875L79.8535 16.1562C79.7493 15.8802 79.5957 15.612 79.3926 15.3516C79.1947 15.0859 78.9238 14.8672 78.5801 14.6953C78.2363 14.5234 77.7962 14.4375 77.2598 14.4375C76.5254 14.4375 75.9134 14.6068 75.4238 14.9453C74.9395 15.2786 74.6973 15.7031 74.6973 16.2187C74.6973 16.6771 74.8639 17.0391 75.1973 17.3047C75.5306 17.5703 76.0514 17.7917 76.7598 17.9687L78.541 18.4063C79.6139 18.6667 80.4134 19.0651 80.9395 19.6016C81.4655 20.1328 81.7285 20.8177 81.7285 21.6562C81.7285 22.3437 81.5306 22.9583 81.1348 23.5C80.7441 24.0417 80.1973 24.4688 79.4941 24.7813C78.791 25.0938 77.9733 25.25 77.041 25.25C75.8171 25.25 74.804 24.9844 74.002 24.4531C73.1999 23.9219 72.6921 23.1458 72.4785 22.125L74.2285 21.6875C74.3952 22.3333 74.7103 22.8177 75.1738 23.1406C75.6426 23.4635 76.2546 23.625 77.0098 23.625C77.8691 23.625 78.5514 23.4427 79.0566 23.0781C79.5671 22.7083 79.8223 22.2656 79.8223 21.75C79.8223 21.3333 79.6764 20.9844 79.3848 20.7031C79.0931 20.4167 78.6452 20.2031 78.041 20.0625L76.041 19.5937C74.9421 19.3333 74.1348 18.9297 73.6191 18.3828C73.1087 17.8307 72.8535 17.1406 72.8535 16.3125C72.8535 15.6354 73.0436 15.0365 73.4238 14.5156C73.8092 13.9948 74.3327 13.5859 74.9941 13.2891C75.6608 12.9922 76.416 12.8438 77.2598 12.8438C78.4473 12.8438 79.3796 13.1042 80.0566 13.625C80.7389 14.1458 81.2233 14.8333 81.5098 15.6875ZM89.5352 25.25C88.3789 25.25 87.3815 24.9948 86.543 24.4844C85.7096 23.9688 85.0664 23.25 84.6133 22.3281C84.1654 21.401 83.9414 20.3229 83.9414 19.0938C83.9414 17.8646 84.1654 16.7812 84.6133 15.8437C85.0664 14.901 85.6966 14.1667 86.5039 13.6406C87.3164 13.1094 88.2643 12.8438 89.3477 12.8438C89.9727 12.8438 90.5898 12.9479 91.1992 13.1562C91.8086 13.3646 92.3633 13.7031 92.8633 14.1719C93.3633 14.6354 93.7617 15.25 94.0586 16.0156C94.3555 16.7812 94.5039 17.724 94.5039 18.8437V19.625H85.2539V18.0312H92.6289C92.6289 17.3542 92.4935 16.75 92.2227 16.2187C91.957 15.6875 91.5768 15.2682 91.082 14.9609C90.5924 14.6536 90.0143 14.5 89.3477 14.5C88.6133 14.5 87.9779 14.6823 87.4414 15.0469C86.9102 15.4062 86.5013 15.875 86.2148 16.4531C85.9284 17.0312 85.7852 17.651 85.7852 18.3125V19.375C85.7852 20.2813 85.9414 21.0495 86.2539 21.6797C86.5716 22.3047 87.0117 22.7812 87.5742 23.1094C88.1367 23.4323 88.7904 23.5938 89.5352 23.5938C90.0195 23.5938 90.457 23.526 90.8477 23.3906C91.2435 23.25 91.5846 23.0417 91.8711 22.7656C92.1576 22.4844 92.3789 22.1354 92.5352 21.7187L94.3164 22.2188C94.1289 22.8229 93.8138 23.3542 93.3711 23.8125C92.9284 24.2656 92.3815 24.6198 91.7305 24.875C91.0794 25.125 90.3477 25.25 89.5352 25.25ZM100.84 25.2813C100.079 25.2813 99.3893 25.138 98.7695 24.8516C98.1497 24.5599 97.6576 24.1406 97.293 23.5938C96.9284 23.0417 96.7461 22.375 96.7461 21.5937C96.7461 20.9062 96.8815 20.349 97.1523 19.9219C97.4232 19.4896 97.7852 19.151 98.2383 18.9062C98.6914 18.6615 99.1914 18.4792 99.7383 18.3594C100.29 18.2344 100.845 18.1354 101.402 18.0625C102.132 17.9687 102.723 17.8984 103.176 17.8516C103.634 17.7995 103.967 17.7135 104.176 17.5937C104.389 17.474 104.496 17.2656 104.496 16.9687V16.9062C104.496 16.1354 104.285 15.5365 103.863 15.1094C103.447 14.6823 102.814 14.4687 101.965 14.4687C101.085 14.4687 100.395 14.6615 99.8945 15.0469C99.3945 15.4323 99.043 15.8437 98.8398 16.2812L97.0898 15.6562C97.4023 14.9271 97.819 14.3594 98.3398 13.9531C98.8659 13.5417 99.4388 13.2552 100.059 13.0937C100.684 12.9271 101.298 12.8438 101.902 12.8438C102.288 12.8438 102.73 12.8906 103.23 12.9844C103.736 13.0729 104.223 13.2578 104.691 13.5391C105.165 13.8203 105.559 14.2448 105.871 14.8125C106.184 15.3802 106.34 16.1406 106.34 17.0938V25H104.496V23.375H104.402C104.277 23.6354 104.069 23.9141 103.777 24.2109C103.486 24.5078 103.098 24.7604 102.613 24.9687C102.129 25.1771 101.538 25.2813 100.84 25.2813ZM101.121 23.625C101.85 23.625 102.465 23.4818 102.965 23.1953C103.47 22.9089 103.85 22.5391 104.105 22.0859C104.366 21.6328 104.496 21.1562 104.496 20.6562V18.9687C104.418 19.0625 104.246 19.1484 103.98 19.2266C103.72 19.2995 103.418 19.3646 103.074 19.4219C102.736 19.474 102.405 19.5208 102.082 19.5625C101.764 19.599 101.507 19.6302 101.309 19.6562C100.829 19.7187 100.382 19.8203 99.9648 19.9609C99.5534 20.0964 99.2201 20.3021 98.9648 20.5781C98.7148 20.849 98.5898 21.2187 98.5898 21.6875C98.5898 22.3281 98.8268 22.8125 99.3008 23.1406C99.7799 23.4635 100.387 23.625 101.121 23.625ZM114.924 13V14.5625H108.705V13H114.924ZM110.518 10.125H112.361V21.5625C112.361 22.0833 112.437 22.474 112.588 22.7344C112.744 22.9896 112.942 23.1615 113.182 23.25C113.426 23.3333 113.684 23.375 113.955 23.375C114.158 23.375 114.325 23.3646 114.455 23.3437C114.585 23.3177 114.689 23.2969 114.768 23.2812L115.143 24.9375C115.018 24.9844 114.843 25.0313 114.619 25.0781C114.395 25.1302 114.111 25.1563 113.768 25.1563C113.247 25.1563 112.736 25.0443 112.236 24.8203C111.742 24.5964 111.33 24.2552 111.002 23.7969C110.679 23.3385 110.518 22.7604 110.518 22.0625V10.125ZM125.982 15.6875L124.326 16.1562C124.222 15.8802 124.068 15.612 123.865 15.3516C123.667 15.0859 123.396 14.8672 123.053 14.6953C122.709 14.5234 122.269 14.4375 121.732 14.4375C120.998 14.4375 120.386 14.6068 119.896 14.9453C119.412 15.2786 119.17 15.7031 119.17 16.2187C119.17 16.6771 119.337 17.0391 119.67 17.3047C120.003 17.5703 120.524 17.7917 121.232 17.9687L123.014 18.4063C124.087 18.6667 124.886 19.0651 125.412 19.6016C125.938 20.1328 126.201 20.8177 126.201 21.6562C126.201 22.3437 126.003 22.9583 125.607 23.5C125.217 24.0417 124.67 24.4688 123.967 24.7813C123.264 25.0938 122.446 25.25 121.514 25.25C120.29 25.25 119.277 24.9844 118.475 24.4531C117.673 23.9219 117.165 23.1458 116.951 22.125L118.701 21.6875C118.868 22.3333 119.183 22.8177 119.646 23.1406C120.115 23.4635 120.727 23.625 121.482 23.625C122.342 23.625 123.024 23.4427 123.529 23.0781C124.04 22.7083 124.295 22.2656 124.295 21.75C124.295 21.3333 124.149 20.9844 123.857 20.7031C123.566 20.4167 123.118 20.2031 122.514 20.0625L120.514 19.5937C119.415 19.3333 118.607 18.9297 118.092 18.3828C117.581 17.8307 117.326 17.1406 117.326 16.3125C117.326 15.6354 117.516 15.0365 117.896 14.5156C118.282 13.9948 118.805 13.5859 119.467 13.2891C120.133 12.9922 120.889 12.8438 121.732 12.8438C122.92 12.8438 123.852 13.1042 124.529 13.625C125.212 14.1458 125.696 14.8333 125.982 15.6875ZM140.039 25.25C138.956 25.25 138.005 24.9922 137.188 24.4766C136.375 23.9609 135.74 23.2396 135.281 22.3125C134.828 21.3854 134.602 20.3021 134.602 19.0625C134.602 17.8125 134.828 16.7214 135.281 15.7891C135.74 14.8568 136.375 14.1328 137.188 13.6172C138.005 13.1016 138.956 12.8438 140.039 12.8438C141.122 12.8438 142.07 13.1016 142.883 13.6172C143.701 14.1328 144.336 14.8568 144.789 15.7891C145.247 16.7214 145.477 17.8125 145.477 19.0625C145.477 20.3021 145.247 21.3854 144.789 22.3125C144.336 23.2396 143.701 23.9609 142.883 24.4766C142.07 24.9922 141.122 25.25 140.039 25.25ZM140.039 23.5938C140.862 23.5938 141.539 23.3828 142.07 22.9609C142.602 22.5391 142.995 21.9844 143.25 21.2969C143.505 20.6094 143.633 19.8646 143.633 19.0625C143.633 18.2604 143.505 17.513 143.25 16.8203C142.995 16.1276 142.602 15.5677 142.07 15.1406C141.539 14.7135 140.862 14.5 140.039 14.5C139.216 14.5 138.539 14.7135 138.008 15.1406C137.477 15.5677 137.083 16.1276 136.828 16.8203C136.573 17.513 136.445 18.2604 136.445 19.0625C136.445 19.8646 136.573 20.6094 136.828 21.2969C137.083 21.9844 137.477 22.5391 138.008 22.9609C138.539 23.3828 139.216 23.5938 140.039 23.5938ZM150.135 17.7812V25H148.291V13H150.072V14.875H150.229C150.51 14.2656 150.937 13.776 151.51 13.4063C152.083 13.0313 152.822 12.8438 153.729 12.8438C154.541 12.8438 155.252 13.0104 155.861 13.3437C156.471 13.6719 156.945 14.1719 157.283 14.8437C157.622 15.5104 157.791 16.3542 157.791 17.375V25H155.947V17.5C155.947 16.5573 155.702 15.8229 155.213 15.2969C154.723 14.7656 154.051 14.5 153.197 14.5C152.609 14.5 152.083 14.6276 151.619 14.8828C151.161 15.138 150.799 15.5104 150.533 16C150.268 16.4896 150.135 17.0833 150.135 17.7812ZM163.004 9V25H161.16V9H163.004ZM167.568 29.5C167.256 29.5 166.977 29.474 166.732 29.4219C166.488 29.375 166.318 29.3281 166.225 29.2813L166.693 27.6563C167.141 27.7708 167.537 27.8125 167.881 27.7812C168.225 27.75 168.529 27.5964 168.795 27.3203C169.066 27.0495 169.313 26.6094 169.537 26L169.881 25.0625L165.443 13H167.443L170.756 22.5625H170.881L174.193 13H176.193L171.1 26.75C170.87 27.3698 170.587 27.8828 170.248 28.2891C169.91 28.7005 169.516 29.0052 169.068 29.2031C168.626 29.401 168.126 29.5 167.568 29.5Z" fill="#0A2134"/>
<circle cx="12" cy="17" r="12" fill="#2699FB"/>
<path d="M16.6673 13.5L10.2507 19.9167L7.33398 17" stroke="white" stroke-width="2" stroke-linecap="round" stroke-linejoin="round"/>
</svg>
