<svg width="282" height="66" viewBox="0 0 282 66" fill="none" xmlns="http://www.w3.org/2000/svg">
<g filter="url(#filter0_dd_4411_1808)">
<rect x="3" y="2" width="276" height="60" rx="8" fill="white"/>
<rect x="3.5" y="2.5" width="275" height="59" rx="7.5" stroke="#D0D5DD"/>
<path d="M52 35V39C52 39.5304 51.7893 40.0391 51.4142 40.4142C51.0391 40.7893 50.5304 41 50 41H36C35.4696 41 34.9609 40.7893 34.5858 40.4142C34.2107 40.0391 34 39.5304 34 39V35" stroke="#43505B" stroke-width="2" stroke-linecap="round" stroke-linejoin="round"/>
<path d="M38 30L43 35L48 30" stroke="#43505B" stroke-width="2" stroke-linecap="round" stroke-linejoin="round"/>
<path d="M43 35V23" stroke="#43505B" stroke-width="2" stroke-linecap="round" stroke-linejoin="round"/>
<path d="M71.1713 39H66.9333V25.9091H71.3055C72.5882 25.9091 73.6897 26.1712 74.6102 26.6953C75.5306 27.2152 76.2359 27.9631 76.7259 28.9389C77.2203 29.9105 77.4674 31.076 77.4674 32.4354C77.4674 33.799 77.2181 34.9709 76.7195 35.951C76.2252 36.9311 75.5093 37.6854 74.5718 38.2138C73.6343 38.7379 72.5008 39 71.1713 39ZM68.9085 37.2741H71.0626C72.0597 37.2741 72.8886 37.0866 73.5491 36.7116C74.2096 36.3324 74.7039 35.7848 75.032 35.0689C75.3602 34.3487 75.5242 33.4709 75.5242 32.4354C75.5242 31.4084 75.3602 30.5369 75.032 29.821C74.7082 29.1051 74.2245 28.5618 73.5811 28.1911C72.9376 27.8203 72.1386 27.6349 71.184 27.6349H68.9085V37.2741ZM83.9058 39.1982C82.9854 39.1982 82.1821 38.9872 81.496 38.5653C80.8099 38.1435 80.2773 37.5533 79.898 36.7947C79.5187 36.0362 79.3291 35.1499 79.3291 34.1357C79.3291 33.1172 79.5187 32.2266 79.898 31.4638C80.2773 30.701 80.8099 30.1087 81.496 29.6868C82.1821 29.2649 82.9854 29.054 83.9058 29.054C84.8263 29.054 85.6295 29.2649 86.3156 29.6868C87.0017 30.1087 87.5344 30.701 87.9136 31.4638C88.2929 32.2266 88.4825 33.1172 88.4825 34.1357C88.4825 35.1499 88.2929 36.0362 87.9136 36.7947C87.5344 37.5533 87.0017 38.1435 86.3156 38.5653C85.6295 38.9872 84.8263 39.1982 83.9058 39.1982ZM83.9122 37.5938C84.5088 37.5938 85.0031 37.4361 85.3952 37.1207C85.7872 36.8054 86.077 36.3857 86.2645 35.8615C86.4562 35.3374 86.5521 34.7599 86.5521 34.1293C86.5521 33.5028 86.4562 32.9276 86.2645 32.4034C86.077 31.875 85.7872 31.451 85.3952 31.1314C85.0031 30.8118 84.5088 30.652 83.9122 30.652C83.3113 30.652 82.8128 30.8118 82.4165 31.1314C82.0244 31.451 81.7325 31.875 81.5407 32.4034C81.3532 32.9276 81.2595 33.5028 81.2595 34.1293C81.2595 34.7599 81.3532 35.3374 81.5407 35.8615C81.7325 36.3857 82.0244 36.8054 82.4165 37.1207C82.8128 37.4361 83.3113 37.5938 83.9122 37.5938ZM92.4456 39L89.5564 29.1818H91.5315L93.4555 36.392H93.5514L95.4818 29.1818H97.4569L99.3746 36.3601H99.4704L101.382 29.1818H103.357L100.474 39H98.5244L96.5301 31.9112H96.3831L94.3888 39H92.4456ZM107.082 33.1705V39H105.171V29.1818H107.005V30.7798H107.127C107.352 30.2599 107.706 29.8423 108.188 29.527C108.673 29.2116 109.285 29.054 110.022 29.054C110.691 29.054 111.277 29.1946 111.78 29.4759C112.283 29.7528 112.673 30.1662 112.95 30.7159C113.227 31.2656 113.365 31.9453 113.365 32.755V39H111.454V32.9851C111.454 32.2734 111.269 31.7173 110.898 31.3168C110.527 30.9119 110.018 30.7095 109.37 30.7095C108.927 30.7095 108.533 30.8054 108.188 30.9972C107.847 31.1889 107.576 31.4702 107.376 31.8409C107.18 32.2074 107.082 32.6506 107.082 33.1705ZM117.84 25.9091V39H115.928V25.9091H117.84ZM124.546 39.1982C123.626 39.1982 122.823 38.9872 122.137 38.5653C121.451 38.1435 120.918 37.5533 120.539 36.7947C120.159 36.0362 119.97 35.1499 119.97 34.1357C119.97 33.1172 120.159 32.2266 120.539 31.4638C120.918 30.701 121.451 30.1087 122.137 29.6868C122.823 29.2649 123.626 29.054 124.546 29.054C125.467 29.054 126.27 29.2649 126.956 29.6868C127.642 30.1087 128.175 30.701 128.554 31.4638C128.934 32.2266 129.123 33.1172 129.123 34.1357C129.123 35.1499 128.934 36.0362 128.554 36.7947C128.175 37.5533 127.642 38.1435 126.956 38.5653C126.27 38.9872 125.467 39.1982 124.546 39.1982ZM124.553 37.5938C125.149 37.5938 125.644 37.4361 126.036 37.1207C126.428 36.8054 126.718 36.3857 126.905 35.8615C127.097 35.3374 127.193 34.7599 127.193 34.1293C127.193 33.5028 127.097 32.9276 126.905 32.4034C126.718 31.875 126.428 31.451 126.036 31.1314C125.644 30.8118 125.149 30.652 124.553 30.652C123.952 30.652 123.453 30.8118 123.057 31.1314C122.665 31.451 122.373 31.875 122.181 32.4034C121.994 32.9276 121.9 33.5028 121.9 34.1293C121.9 34.7599 121.994 35.3374 122.181 35.8615C122.373 36.3857 122.665 36.8054 123.057 37.1207C123.453 37.4361 123.952 37.5938 124.553 37.5938ZM134.114 39.2173C133.492 39.2173 132.929 39.1023 132.426 38.8722C131.923 38.6378 131.525 38.299 131.231 37.8558C130.941 37.4126 130.796 36.8693 130.796 36.2259C130.796 35.6719 130.903 35.2159 131.116 34.858C131.329 34.5 131.617 34.2166 131.979 34.0078C132.341 33.799 132.746 33.6413 133.193 33.5348C133.641 33.4283 134.097 33.3473 134.561 33.2919C135.149 33.2237 135.627 33.1683 135.993 33.1257C136.359 33.0788 136.626 33.0043 136.792 32.902C136.958 32.7997 137.041 32.6335 137.041 32.4034V32.3587C137.041 31.8004 136.884 31.3679 136.568 31.0611C136.257 30.7543 135.793 30.6009 135.175 30.6009C134.531 30.6009 134.024 30.7436 133.653 31.0291C133.287 31.3104 133.033 31.6236 132.893 31.9688L131.097 31.5597C131.31 30.9631 131.621 30.4815 132.03 30.1151C132.443 29.7443 132.918 29.4759 133.455 29.3097C133.992 29.1392 134.557 29.054 135.149 29.054C135.541 29.054 135.957 29.1009 136.396 29.1946C136.839 29.2841 137.252 29.4503 137.636 29.6932C138.024 29.9361 138.341 30.2834 138.588 30.7351C138.835 31.1825 138.959 31.7642 138.959 32.4801V39H137.092V37.6577H137.016C136.892 37.9048 136.707 38.1477 136.46 38.3864C136.212 38.625 135.895 38.8232 135.507 38.9808C135.119 39.1385 134.655 39.2173 134.114 39.2173ZM134.529 37.6832C135.058 37.6832 135.509 37.5788 135.884 37.37C136.264 37.1612 136.551 36.8885 136.747 36.5518C136.948 36.2109 137.048 35.8466 137.048 35.4588V34.1932C136.979 34.2614 136.847 34.3253 136.651 34.3849C136.46 34.4403 136.24 34.4893 135.993 34.532C135.746 34.5703 135.505 34.6065 135.271 34.6406C135.036 34.6705 134.84 34.696 134.683 34.7173C134.312 34.7642 133.973 34.843 133.666 34.9538C133.364 35.0646 133.121 35.2244 132.938 35.4332C132.759 35.6378 132.669 35.9105 132.669 36.2514C132.669 36.7244 132.844 37.0824 133.193 37.3253C133.543 37.5639 133.988 37.6832 134.529 37.6832ZM145.18 39.1918C144.387 39.1918 143.68 38.9893 143.058 38.5845C142.44 38.1754 141.954 37.5937 141.6 36.8395C141.251 36.081 141.076 35.1712 141.076 34.1101C141.076 33.049 141.253 32.1413 141.607 31.3871C141.965 30.6328 142.455 30.0554 143.077 29.6548C143.699 29.2543 144.404 29.054 145.193 29.054C145.802 29.054 146.292 29.1562 146.663 29.3608C147.038 29.5611 147.328 29.7955 147.532 30.0639C147.741 30.3324 147.903 30.5689 148.018 30.7734H148.133V25.9091H150.044V39H148.178V37.4723H148.018C147.903 37.6811 147.737 37.9197 147.519 38.1882C147.306 38.4567 147.012 38.6911 146.637 38.8913C146.262 39.0916 145.777 39.1918 145.18 39.1918ZM145.602 37.5618C146.152 37.5618 146.616 37.4169 146.995 37.1271C147.379 36.8331 147.669 36.4261 147.865 35.9062C148.065 35.3864 148.165 34.7812 148.165 34.0909C148.165 33.4091 148.067 32.8125 147.871 32.3011C147.675 31.7898 147.387 31.3913 147.008 31.1058C146.629 30.8203 146.16 30.6776 145.602 30.6776C145.027 30.6776 144.547 30.8267 144.164 31.125C143.78 31.4233 143.49 31.8303 143.294 32.3459C143.103 32.8615 143.007 33.4432 143.007 34.0909C143.007 34.7472 143.105 35.3374 143.301 35.8615C143.497 36.3857 143.786 36.8011 144.17 37.108C144.558 37.4105 145.035 37.5618 145.602 37.5618ZM168.562 30.1662H166.568C166.491 29.7401 166.348 29.3651 166.139 29.0412C165.931 28.7173 165.675 28.4425 165.372 28.2166C165.07 27.9908 164.731 27.8203 164.356 27.7053C163.985 27.5902 163.591 27.5327 163.174 27.5327C162.419 27.5327 161.744 27.7223 161.147 28.1016C160.555 28.4808 160.086 29.0369 159.741 29.7699C159.4 30.5028 159.23 31.3977 159.23 32.4545C159.23 33.5199 159.4 34.419 159.741 35.152C160.086 35.8849 160.557 36.4389 161.154 36.8139C161.75 37.1889 162.421 37.3764 163.167 37.3764C163.581 37.3764 163.973 37.321 164.343 37.2102C164.718 37.0952 165.057 36.9268 165.36 36.7053C165.662 36.4837 165.918 36.2131 166.127 35.8935C166.34 35.5696 166.487 35.1989 166.568 34.7812L168.562 34.7876C168.456 35.4311 168.249 36.0234 167.942 36.5646C167.639 37.1016 167.25 37.5661 166.772 37.9581C166.299 38.3459 165.758 38.6463 165.149 38.8594C164.539 39.0724 163.875 39.179 163.154 39.179C162.021 39.179 161.011 38.9105 160.125 38.3736C159.238 37.8324 158.539 37.0589 158.028 36.0533C157.521 35.0476 157.267 33.848 157.267 32.4545C157.267 31.0568 157.523 29.8572 158.034 28.8558C158.546 27.8501 159.245 27.0788 160.131 26.5419C161.017 26.0007 162.025 25.7301 163.154 25.7301C163.849 25.7301 164.497 25.8303 165.098 26.0305C165.703 26.2266 166.246 26.5163 166.728 26.8999C167.209 27.2791 167.608 27.7436 167.923 28.2933C168.238 28.8388 168.451 29.4631 168.562 30.1662ZM176.992 34.9283V29.1818H178.909V39H177.03V37.2997H176.928C176.702 37.8239 176.34 38.2607 175.841 38.6101C175.347 38.9553 174.731 39.1278 173.994 39.1278C173.363 39.1278 172.805 38.9893 172.319 38.7124C171.837 38.4311 171.458 38.0156 171.181 37.4659C170.908 36.9162 170.772 36.2365 170.772 35.4268V29.1818H172.683V35.1967C172.683 35.8658 172.869 36.3984 173.239 36.7947C173.61 37.1911 174.092 37.3892 174.684 37.3892C175.042 37.3892 175.398 37.2997 175.752 37.1207C176.109 36.9418 176.406 36.6712 176.64 36.3089C176.879 35.9467 176.996 35.4865 176.992 34.9283ZM181.477 39V29.1818H183.324V30.7415H183.427C183.606 30.2131 183.921 29.7976 184.373 29.495C184.829 29.1882 185.344 29.0348 185.92 29.0348C186.039 29.0348 186.18 29.0391 186.342 29.0476C186.508 29.0561 186.638 29.0668 186.731 29.0795V30.9077C186.655 30.8864 186.518 30.8629 186.322 30.8374C186.126 30.8075 185.93 30.7926 185.734 30.7926C185.283 30.7926 184.88 30.8885 184.526 31.0803C184.177 31.2678 183.9 31.5298 183.695 31.8665C183.491 32.1989 183.388 32.5781 183.388 33.0043V39H181.477ZM188.385 39V29.1818H190.233V30.7415H190.335C190.514 30.2131 190.829 29.7976 191.281 29.495C191.737 29.1882 192.253 29.0348 192.828 29.0348C192.947 29.0348 193.088 29.0391 193.25 29.0476C193.416 29.0561 193.546 29.0668 193.64 29.0795V30.9077C193.563 30.8864 193.427 30.8629 193.231 30.8374C193.035 30.8075 192.839 30.7926 192.642 30.7926C192.191 30.7926 191.788 30.8885 191.434 31.0803C191.085 31.2678 190.808 31.5298 190.603 31.8665C190.399 32.1989 190.297 32.5781 190.297 33.0043V39H188.385ZM195.294 39V29.1818H197.205V39H195.294ZM196.259 27.6669C195.926 27.6669 195.641 27.5561 195.402 27.3345C195.168 27.1087 195.051 26.8402 195.051 26.5291C195.051 26.2138 195.168 25.9453 195.402 25.7237C195.641 25.4979 195.926 25.3849 196.259 25.3849C196.591 25.3849 196.875 25.4979 197.109 25.7237C197.348 25.9453 197.467 26.2138 197.467 26.5291C197.467 26.8402 197.348 27.1087 197.109 27.3345C196.875 27.5561 196.591 27.6669 196.259 27.6669ZM203.912 39.1982C202.961 39.1982 202.143 38.983 201.457 38.5526C200.775 38.1179 200.251 37.5192 199.885 36.7564C199.518 35.9936 199.335 35.12 199.335 34.1357C199.335 33.1385 199.522 32.2585 199.897 31.4957C200.272 30.7287 200.801 30.13 201.483 29.6996C202.165 29.2692 202.968 29.054 203.892 29.054C204.638 29.054 205.303 29.1925 205.887 29.4695C206.471 29.7422 206.941 30.1257 207.299 30.62C207.662 31.1143 207.877 31.6918 207.945 32.3523H206.085C205.983 31.892 205.748 31.4957 205.382 31.1634C205.02 30.831 204.534 30.6648 203.924 30.6648C203.392 30.6648 202.925 30.8054 202.525 31.0866C202.128 31.3636 201.819 31.7599 201.598 32.2756C201.376 32.7869 201.265 33.392 201.265 34.0909C201.265 34.8068 201.374 35.4247 201.591 35.9446C201.809 36.4645 202.116 36.8672 202.512 37.1527C202.912 37.4382 203.383 37.581 203.924 37.581C204.287 37.581 204.615 37.5149 204.909 37.3828C205.207 37.2464 205.456 37.0526 205.657 36.8011C205.861 36.5497 206.004 36.2472 206.085 35.8935H207.945C207.877 36.5284 207.67 37.0952 207.325 37.5938C206.98 38.0923 206.517 38.4844 205.938 38.7699C205.363 39.0554 204.687 39.1982 203.912 39.1982ZM216.208 34.9283V29.1818H218.126V39H216.247V37.2997H216.144C215.919 37.8239 215.556 38.2607 215.058 38.6101C214.563 38.9553 213.948 39.1278 213.21 39.1278C212.58 39.1278 212.022 38.9893 211.536 38.7124C211.054 38.4311 210.675 38.0156 210.398 37.4659C210.125 36.9162 209.989 36.2365 209.989 35.4268V29.1818H211.9V35.1967C211.9 35.8658 212.085 36.3984 212.456 36.7947C212.827 37.1911 213.309 37.3892 213.901 37.3892C214.259 37.3892 214.615 37.2997 214.968 37.1207C215.326 36.9418 215.622 36.6712 215.857 36.3089C216.095 35.9467 216.213 35.4865 216.208 34.9283ZM222.605 25.9091V39H220.694V25.9091H222.605ZM231.396 34.9283V29.1818H233.313V39H231.434V37.2997H231.332C231.106 37.8239 230.744 38.2607 230.245 38.6101C229.751 38.9553 229.135 39.1278 228.398 39.1278C227.767 39.1278 227.209 38.9893 226.723 38.7124C226.242 38.4311 225.862 38.0156 225.585 37.4659C225.313 36.9162 225.176 36.2365 225.176 35.4268V29.1818H227.088V35.1967C227.088 35.8658 227.273 36.3984 227.644 36.7947C228.014 37.1911 228.496 37.3892 229.088 37.3892C229.446 37.3892 229.802 37.2997 230.156 37.1207C230.514 36.9418 230.81 36.6712 231.044 36.3089C231.283 35.9467 231.4 35.4865 231.396 34.9283ZM235.881 39V29.1818H237.716V30.7798H237.837C238.042 30.2386 238.377 29.8168 238.841 29.5142C239.305 29.2074 239.862 29.054 240.509 29.054C241.166 29.054 241.715 29.2074 242.158 29.5142C242.606 29.821 242.936 30.2429 243.149 30.7798H243.252C243.486 30.2557 243.859 29.8381 244.37 29.527C244.881 29.2116 245.491 29.054 246.198 29.054C247.089 29.054 247.815 29.3331 248.378 29.8913C248.945 30.4496 249.228 31.2912 249.228 32.4162V39H247.317V32.5952C247.317 31.9304 247.136 31.4489 246.774 31.1506C246.411 30.8523 245.979 30.7031 245.476 30.7031C244.854 30.7031 244.37 30.8949 244.025 31.2784C243.68 31.6577 243.507 32.1456 243.507 32.7422V39H241.602V32.4737C241.602 31.9411 241.436 31.5128 241.104 31.1889C240.771 30.8651 240.339 30.7031 239.806 30.7031C239.444 30.7031 239.109 30.799 238.803 30.9908C238.5 31.1783 238.255 31.4403 238.068 31.777C237.884 32.1136 237.793 32.5036 237.793 32.9467V39H235.881Z" fill="#0A2134"/>
</g>
<defs>
<filter id="filter0_dd_4411_1808" x="0" y="0" width="282" height="66" filterUnits="userSpaceOnUse" color-interpolation-filters="sRGB">
<feFlood flood-opacity="0" result="BackgroundImageFix"/>
<feColorMatrix in="SourceAlpha" type="matrix" values="0 0 0 0 0 0 0 0 0 0 0 0 0 0 0 0 0 0 127 0" result="hardAlpha"/>
<feOffset dy="1"/>
<feGaussianBlur stdDeviation="1"/>
<feColorMatrix type="matrix" values="0 0 0 0 0.0627451 0 0 0 0 0.0941176 0 0 0 0 0.156863 0 0 0 0.06 0"/>
<feBlend mode="normal" in2="BackgroundImageFix" result="effect1_dropShadow_4411_1808"/>
<feColorMatrix in="SourceAlpha" type="matrix" values="0 0 0 0 0 0 0 0 0 0 0 0 0 0 0 0 0 0 127 0" result="hardAlpha"/>
<feOffset dy="1"/>
<feGaussianBlur stdDeviation="1.5"/>
<feColorMatrix type="matrix" values="0 0 0 0 0.0627451 0 0 0 0 0.0941176 0 0 0 0 0.156863 0 0 0 0.1 0"/>
<feBlend mode="normal" in2="effect1_dropShadow_4411_1808" result="effect2_dropShadow_4411_1808"/>
<feBlend mode="normal" in="SourceGraphic" in2="effect2_dropShadow_4411_1808" result="shape"/>
</filter>
</defs>
</svg>
