<svg width="526" height="33" viewBox="0 0 526 33" fill="none" xmlns="http://www.w3.org/2000/svg">
<path d="M48.6875 13C48.5938 12.2083 48.2135 11.5938 47.5469 11.1562C46.8802 10.7187 46.0625 10.5 45.0938 10.5C44.3854 10.5 43.7656 10.6146 43.2344 10.8437C42.7083 11.0729 42.2969 11.388 42 11.7891C41.7083 12.1901 41.5625 12.6458 41.5625 13.1562C41.5625 13.5833 41.6641 13.9505 41.8672 14.2578C42.0755 14.5599 42.3411 14.8125 42.6641 15.0156C42.987 15.2135 43.3255 15.3776 43.6797 15.5078C44.0339 15.6328 44.3594 15.7344 44.6562 15.8125L46.2813 16.25C46.6979 16.3594 47.1615 16.5104 47.6719 16.7031C48.1875 16.8958 48.6797 17.1589 49.1484 17.4922C49.6224 17.8203 50.013 18.2422 50.3203 18.7578C50.6276 19.2734 50.7813 19.9062 50.7813 20.6562C50.7813 21.5208 50.5547 22.3021 50.1016 23C49.6536 23.6979 48.9974 24.2526 48.1328 24.6641C47.2734 25.0755 46.2292 25.2813 45 25.2813C43.8542 25.2813 42.862 25.0964 42.0234 24.7266C41.1901 24.3568 40.5339 23.8411 40.0547 23.1797C39.5807 22.5182 39.3125 21.75 39.25 20.875H41.25C41.3021 21.4792 41.5052 21.9792 41.8594 22.375C42.2188 22.7656 42.6719 23.0573 43.2188 23.25C43.7708 23.4375 44.3646 23.5312 45 23.5312C45.7396 23.5312 46.4036 23.4115 46.9922 23.1719C47.5807 22.9271 48.0469 22.5885 48.3906 22.1562C48.7344 21.7187 48.9063 21.2083 48.9063 20.625C48.9063 20.0937 48.7578 19.6615 48.4609 19.3281C48.1641 18.9948 47.7734 18.724 47.2891 18.5156C46.8047 18.3073 46.2813 18.125 45.7188 17.9687L43.75 17.4062C42.5 17.0469 41.5104 16.5339 40.7812 15.8672C40.0521 15.2005 39.6875 14.3281 39.6875 13.25C39.6875 12.3542 39.9297 11.5729 40.4141 10.9062C40.9036 10.2344 41.5599 9.71354 42.3828 9.34375C43.2109 8.96875 44.1354 8.78125 45.1563 8.78125C46.1875 8.78125 47.1042 8.96615 47.9063 9.33594C48.7083 9.70052 49.3438 10.2005 49.8125 10.8359C50.2865 11.4714 50.5365 12.1927 50.5625 13H48.6875ZM53.7168 29.5V13H55.498V14.9062H55.7168C55.8522 14.6979 56.0397 14.4323 56.2793 14.1094C56.5241 13.7812 56.873 13.4896 57.3262 13.2344C57.7845 12.974 58.4043 12.8438 59.1855 12.8438C60.196 12.8438 61.0866 13.0964 61.8574 13.6016C62.6283 14.1068 63.2298 14.8229 63.6621 15.75C64.0944 16.6771 64.3105 17.7708 64.3105 19.0313C64.3105 20.3021 64.0944 21.4036 63.6621 22.3359C63.2298 23.263 62.6309 23.9818 61.8652 24.4922C61.0996 24.9974 60.2168 25.25 59.2168 25.25C58.446 25.25 57.8288 25.1224 57.3652 24.8672C56.9017 24.6068 56.5449 24.3125 56.2949 23.9844C56.0449 23.651 55.8522 23.375 55.7168 23.1562H55.5605V29.5H53.7168ZM55.5293 19C55.5293 19.9062 55.6621 20.7057 55.9277 21.3984C56.1934 22.0859 56.5814 22.625 57.0918 23.0156C57.6022 23.401 58.2272 23.5938 58.9668 23.5938C59.7376 23.5938 60.3809 23.3906 60.8965 22.9844C61.4173 22.5729 61.8079 22.0208 62.0684 21.3281C62.334 20.6302 62.4668 19.8542 62.4668 19C62.4668 18.1562 62.3366 17.3958 62.0762 16.7187C61.821 16.0365 61.4329 15.4974 60.9121 15.1016C60.3965 14.7005 59.748 14.5 58.9668 14.5C58.2168 14.5 57.5866 14.6901 57.0762 15.0703C56.5658 15.4453 56.1803 15.9714 55.9199 16.6484C55.6595 17.3203 55.5293 18.1042 55.5293 19ZM72.1543 25.25C70.998 25.25 70.0007 24.9948 69.1621 24.4844C68.3288 23.9688 67.6855 23.25 67.2324 22.3281C66.7845 21.401 66.5605 20.3229 66.5605 19.0938C66.5605 17.8646 66.7845 16.7812 67.2324 15.8437C67.6855 14.901 68.3158 14.1667 69.123 13.6406C69.9355 13.1094 70.8835 12.8438 71.9668 12.8438C72.5918 12.8438 73.209 12.9479 73.8184 13.1562C74.4277 13.3646 74.9824 13.7031 75.4824 14.1719C75.9824 14.6354 76.3809 15.25 76.6777 16.0156C76.9746 16.7812 77.123 17.724 77.123 18.8437V19.625H67.873V18.0312H75.248C75.248 17.3542 75.1126 16.75 74.8418 16.2187C74.5762 15.6875 74.196 15.2682 73.7012 14.9609C73.2116 14.6536 72.6335 14.5 71.9668 14.5C71.2324 14.5 70.597 14.6823 70.0605 15.0469C69.5293 15.4062 69.1204 15.875 68.834 16.4531C68.5475 17.0312 68.4043 17.651 68.4043 18.3125V19.375C68.4043 20.2813 68.5605 21.0495 68.873 21.6797C69.1908 22.3047 69.6309 22.7812 70.1934 23.1094C70.7559 23.4323 71.4095 23.5938 72.1543 23.5938C72.6387 23.5938 73.0762 23.526 73.4668 23.3906C73.8626 23.25 74.2038 23.0417 74.4902 22.7656C74.7767 22.4844 74.998 22.1354 75.1543 21.7187L76.9355 22.2188C76.748 22.8229 76.4329 23.3542 75.9902 23.8125C75.5475 24.2656 75.0007 24.6198 74.3496 24.875C73.6986 25.125 72.9668 25.25 72.1543 25.25ZM84.8027 25.25C83.6777 25.25 82.709 24.9844 81.8965 24.4531C81.084 23.9219 80.459 23.1901 80.0215 22.2578C79.584 21.3255 79.3652 20.2604 79.3652 19.0625C79.3652 17.8437 79.5892 16.7682 80.0371 15.8359C80.4902 14.8984 81.1204 14.1667 81.9277 13.6406C82.7402 13.1094 83.6882 12.8438 84.7715 12.8438C85.6152 12.8438 86.3757 13 87.0527 13.3125C87.7298 13.625 88.2845 14.0625 88.7168 14.625C89.1491 15.1875 89.4173 15.8437 89.5215 16.5937H87.6777C87.5371 16.0469 87.2246 15.5625 86.7402 15.1406C86.2611 14.7135 85.6152 14.5 84.8027 14.5C84.084 14.5 83.4538 14.6875 82.9121 15.0625C82.3757 15.4323 81.9564 15.9557 81.6543 16.6328C81.3574 17.3047 81.209 18.0937 81.209 19C81.209 19.9271 81.3548 20.7344 81.6465 21.4219C81.9434 22.1094 82.36 22.6432 82.8965 23.0234C83.4382 23.4036 84.0736 23.5938 84.8027 23.5938C85.2819 23.5938 85.7168 23.5104 86.1074 23.3437C86.498 23.1771 86.8288 22.9375 87.0996 22.625C87.3704 22.3125 87.5632 21.9375 87.6777 21.5H89.5215C89.4173 22.2083 89.1595 22.8464 88.748 23.4141C88.3418 23.9766 87.8027 24.4245 87.1309 24.7578C86.4642 25.0859 85.6882 25.25 84.8027 25.25ZM92.2168 25V13H94.0605V25H92.2168ZM93.1543 11C92.7949 11 92.485 10.8776 92.2246 10.6328C91.9694 10.388 91.8418 10.0938 91.8418 9.75C91.8418 9.40625 91.9694 9.11198 92.2246 8.86719C92.485 8.6224 92.7949 8.5 93.1543 8.5C93.5137 8.5 93.821 8.6224 94.0762 8.86719C94.3366 9.11198 94.4668 9.40625 94.4668 9.75C94.4668 10.0938 94.3366 10.388 94.0762 10.6328C93.821 10.8776 93.5137 11 93.1543 11ZM100.969 25.2813C100.208 25.2813 99.5182 25.138 98.8984 24.8516C98.2786 24.5599 97.7865 24.1406 97.4219 23.5938C97.0573 23.0417 96.875 22.375 96.875 21.5937C96.875 20.9062 97.0104 20.349 97.2813 19.9219C97.5521 19.4896 97.9141 19.151 98.3672 18.9062C98.8203 18.6615 99.3203 18.4792 99.8672 18.3594C100.419 18.2344 100.974 18.1354 101.531 18.0625C102.26 17.9687 102.852 17.8984 103.305 17.8516C103.763 17.7995 104.096 17.7135 104.305 17.5937C104.518 17.474 104.625 17.2656 104.625 16.9687V16.9062C104.625 16.1354 104.414 15.5365 103.992 15.1094C103.576 14.6823 102.943 14.4687 102.094 14.4687C101.214 14.4687 100.523 14.6615 100.023 15.0469C99.5234 15.4323 99.1719 15.8437 98.9688 16.2812L97.2188 15.6562C97.5313 14.9271 97.9479 14.3594 98.4688 13.9531C98.9948 13.5417 99.5677 13.2552 100.188 13.0937C100.813 12.9271 101.427 12.8438 102.031 12.8438C102.417 12.8438 102.859 12.8906 103.359 12.9844C103.865 13.0729 104.352 13.2578 104.82 13.5391C105.294 13.8203 105.688 14.2448 106 14.8125C106.313 15.3802 106.469 16.1406 106.469 17.0938V25H104.625V23.375H104.531C104.406 23.6354 104.198 23.9141 103.906 24.2109C103.615 24.5078 103.227 24.7604 102.742 24.9687C102.258 25.1771 101.667 25.2813 100.969 25.2813ZM101.25 23.625C101.979 23.625 102.594 23.4818 103.094 23.1953C103.599 22.9089 103.979 22.5391 104.234 22.0859C104.495 21.6328 104.625 21.1562 104.625 20.6562V18.9687C104.547 19.0625 104.375 19.1484 104.109 19.2266C103.849 19.2995 103.547 19.3646 103.203 19.4219C102.865 19.474 102.534 19.5208 102.211 19.5625C101.893 19.599 101.635 19.6302 101.438 19.6562C100.958 19.7187 100.51 19.8203 100.094 19.9609C99.6823 20.0964 99.349 20.3021 99.0938 20.5781C98.8438 20.849 98.7188 21.2187 98.7188 21.6875C98.7188 22.3281 98.9557 22.8125 99.4297 23.1406C99.9089 23.4635 100.516 23.625 101.25 23.625ZM111.678 9V25H109.834V9H111.678ZM115.055 25V13H116.898V25H115.055ZM115.992 11C115.633 11 115.323 10.8776 115.063 10.6328C114.807 10.388 114.68 10.0938 114.68 9.75C114.68 9.40625 114.807 9.11198 115.063 8.86719C115.323 8.6224 115.633 8.5 115.992 8.5C116.352 8.5 116.659 8.6224 116.914 8.86719C117.174 9.11198 117.305 9.40625 117.305 9.75C117.305 10.0938 117.174 10.388 116.914 10.6328C116.659 10.8776 116.352 11 115.992 11ZM119.932 25V23.5938L126.744 14.8437V14.7187H120.15V13H129.119V14.4687L122.494 23.1562V23.2812H129.338V25H119.932ZM135.709 25.2813C134.949 25.2813 134.258 25.138 133.639 24.8516C133.019 24.5599 132.527 24.1406 132.162 23.5938C131.798 23.0417 131.615 22.375 131.615 21.5937C131.615 20.9062 131.751 20.349 132.021 19.9219C132.292 19.4896 132.654 19.151 133.107 18.9062C133.561 18.6615 134.061 18.4792 134.607 18.3594C135.16 18.2344 135.714 18.1354 136.271 18.0625C137.001 17.9687 137.592 17.8984 138.045 17.8516C138.503 17.7995 138.837 17.7135 139.045 17.5937C139.258 17.474 139.365 17.2656 139.365 16.9687V16.9062C139.365 16.1354 139.154 15.5365 138.732 15.1094C138.316 14.6823 137.683 14.4687 136.834 14.4687C135.954 14.4687 135.264 14.6615 134.764 15.0469C134.264 15.4323 133.912 15.8437 133.709 16.2812L131.959 15.6562C132.271 14.9271 132.688 14.3594 133.209 13.9531C133.735 13.5417 134.308 13.2552 134.928 13.0937C135.553 12.9271 136.167 12.8438 136.771 12.8438C137.157 12.8438 137.6 12.8906 138.1 12.9844C138.605 13.0729 139.092 13.2578 139.561 13.5391C140.035 13.8203 140.428 14.2448 140.74 14.8125C141.053 15.3802 141.209 16.1406 141.209 17.0938V25H139.365V23.375H139.271C139.146 23.6354 138.938 23.9141 138.646 24.2109C138.355 24.5078 137.967 24.7604 137.482 24.9687C136.998 25.1771 136.407 25.2813 135.709 25.2813ZM135.99 23.625C136.719 23.625 137.334 23.4818 137.834 23.1953C138.339 22.9089 138.719 22.5391 138.975 22.0859C139.235 21.6328 139.365 21.1562 139.365 20.6562V18.9687C139.287 19.0625 139.115 19.1484 138.85 19.2266C138.589 19.2995 138.287 19.3646 137.943 19.4219C137.605 19.474 137.274 19.5208 136.951 19.5625C136.633 19.599 136.376 19.6302 136.178 19.6562C135.699 19.7187 135.251 19.8203 134.834 19.9609C134.423 20.0964 134.089 20.3021 133.834 20.5781C133.584 20.849 133.459 21.2187 133.459 21.6875C133.459 22.3281 133.696 22.8125 134.17 23.1406C134.649 23.4635 135.256 23.625 135.99 23.625ZM149.793 13V14.5625H143.574V13H149.793ZM145.387 10.125H147.23V21.5625C147.23 22.0833 147.306 22.474 147.457 22.7344C147.613 22.9896 147.811 23.1615 148.051 23.25C148.296 23.3333 148.553 23.375 148.824 23.375C149.027 23.375 149.194 23.3646 149.324 23.3437C149.454 23.3177 149.559 23.2969 149.637 23.2812L150.012 24.9375C149.887 24.9844 149.712 25.0313 149.488 25.0781C149.264 25.1302 148.98 25.1563 148.637 25.1563C148.116 25.1563 147.605 25.0443 147.105 24.8203C146.611 24.5964 146.199 24.2552 145.871 23.7969C145.548 23.3385 145.387 22.7604 145.387 22.0625V10.125ZM152.566 25V13H154.41V25H152.566ZM153.504 11C153.145 11 152.835 10.8776 152.574 10.6328C152.319 10.388 152.191 10.0938 152.191 9.75C152.191 9.40625 152.319 9.11198 152.574 8.86719C152.835 8.6224 153.145 8.5 153.504 8.5C153.863 8.5 154.171 8.6224 154.426 8.86719C154.686 9.11198 154.816 9.40625 154.816 9.75C154.816 10.0938 154.686 10.388 154.426 10.6328C154.171 10.8776 153.863 11 153.504 11ZM162.662 25.25C161.579 25.25 160.628 24.9922 159.811 24.4766C158.998 23.9609 158.363 23.2396 157.904 22.3125C157.451 21.3854 157.225 20.3021 157.225 19.0625C157.225 17.8125 157.451 16.7214 157.904 15.7891C158.363 14.8568 158.998 14.1328 159.811 13.6172C160.628 13.1016 161.579 12.8438 162.662 12.8438C163.745 12.8438 164.693 13.1016 165.506 13.6172C166.324 14.1328 166.959 14.8568 167.412 15.7891C167.87 16.7214 168.1 17.8125 168.1 19.0625C168.1 20.3021 167.87 21.3854 167.412 22.3125C166.959 23.2396 166.324 23.9609 165.506 24.4766C164.693 24.9922 163.745 25.25 162.662 25.25ZM162.662 23.5938C163.485 23.5938 164.162 23.3828 164.693 22.9609C165.225 22.5391 165.618 21.9844 165.873 21.2969C166.128 20.6094 166.256 19.8646 166.256 19.0625C166.256 18.2604 166.128 17.513 165.873 16.8203C165.618 16.1276 165.225 15.5677 164.693 15.1406C164.162 14.7135 163.485 14.5 162.662 14.5C161.839 14.5 161.162 14.7135 160.631 15.1406C160.1 15.5677 159.706 16.1276 159.451 16.8203C159.196 17.513 159.068 18.2604 159.068 19.0625C159.068 19.8646 159.196 20.6094 159.451 21.2969C159.706 21.9844 160.1 22.5391 160.631 22.9609C161.162 23.3828 161.839 23.5938 162.662 23.5938ZM172.758 17.7812V25H170.914V13H172.695V14.875H172.852C173.133 14.2656 173.56 13.776 174.133 13.4063C174.706 13.0313 175.445 12.8438 176.352 12.8438C177.164 12.8438 177.875 13.0104 178.484 13.3437C179.094 13.6719 179.568 14.1719 179.906 14.8437C180.245 15.5104 180.414 16.3542 180.414 17.375V25H178.57V17.5C178.57 16.5573 178.326 15.8229 177.836 15.2969C177.346 14.7656 176.674 14.5 175.82 14.5C175.232 14.5 174.706 14.6276 174.242 14.8828C173.784 15.138 173.422 15.5104 173.156 16C172.891 16.4896 172.758 17.0833 172.758 17.7812ZM185.127 25.125C184.742 25.125 184.411 24.987 184.135 24.7109C183.859 24.4349 183.721 24.1042 183.721 23.7187C183.721 23.3333 183.859 23.0026 184.135 22.7266C184.411 22.4505 184.742 22.3125 185.127 22.3125C185.512 22.3125 185.843 22.4505 186.119 22.7266C186.395 23.0026 186.533 23.3333 186.533 23.7187C186.533 23.974 186.468 24.2083 186.338 24.4219C186.213 24.6354 186.044 24.8073 185.83 24.9375C185.622 25.0625 185.387 25.125 185.127 25.125ZM185.127 16.2187C184.742 16.2187 184.411 16.0807 184.135 15.8047C183.859 15.5286 183.721 15.1979 183.721 14.8125C183.721 14.4271 183.859 14.0964 184.135 13.8203C184.411 13.5443 184.742 13.4063 185.127 13.4063C185.512 13.4063 185.843 13.5443 186.119 13.8203C186.395 14.0964 186.533 14.4271 186.533 14.8125C186.533 15.0677 186.468 15.3021 186.338 15.5156C186.213 15.7292 186.044 15.901 185.83 16.0312C185.622 16.1562 185.387 16.2187 185.127 16.2187ZM196.279 25V9H201.686C202.941 9 203.967 9.22656 204.764 9.67969C205.566 10.1276 206.16 10.7344 206.545 11.5C206.93 12.2656 207.123 13.1198 207.123 14.0625C207.123 15.0052 206.93 15.862 206.545 16.6328C206.165 17.4036 205.576 18.0182 204.779 18.4766C203.982 18.9297 202.962 19.1562 201.717 19.1562H197.842V17.4375H201.654C202.514 17.4375 203.204 17.2891 203.725 16.9922C204.245 16.6953 204.623 16.2943 204.857 15.7891C205.097 15.2786 205.217 14.7031 205.217 14.0625C205.217 13.4219 205.097 12.849 204.857 12.3437C204.623 11.8385 204.243 11.4427 203.717 11.1562C203.191 10.8646 202.493 10.7187 201.623 10.7187H198.217V25H196.279ZM214.896 25.25C213.74 25.25 212.743 24.9948 211.904 24.4844C211.071 23.9688 210.428 23.25 209.975 22.3281C209.527 21.401 209.303 20.3229 209.303 19.0938C209.303 17.8646 209.527 16.7812 209.975 15.8437C210.428 14.901 211.058 14.1667 211.865 13.6406C212.678 13.1094 213.626 12.8438 214.709 12.8438C215.334 12.8438 215.951 12.9479 216.561 13.1562C217.17 13.3646 217.725 13.7031 218.225 14.1719C218.725 14.6354 219.123 15.25 219.42 16.0156C219.717 16.7812 219.865 17.724 219.865 18.8437V19.625H210.615V18.0312H217.99C217.99 17.3542 217.855 16.75 217.584 16.2187C217.318 15.6875 216.938 15.2682 216.443 14.9609C215.954 14.6536 215.376 14.5 214.709 14.5C213.975 14.5 213.339 14.6823 212.803 15.0469C212.271 15.4062 211.863 15.875 211.576 16.4531C211.29 17.0312 211.146 17.651 211.146 18.3125V19.375C211.146 20.2813 211.303 21.0495 211.615 21.6797C211.933 22.3047 212.373 22.7812 212.936 23.1094C213.498 23.4323 214.152 23.5938 214.896 23.5938C215.381 23.5938 215.818 23.526 216.209 23.3906C216.605 23.25 216.946 23.0417 217.232 22.7656C217.519 22.4844 217.74 22.1354 217.896 21.7187L219.678 22.2188C219.49 22.8229 219.175 23.3542 218.732 23.8125C218.29 24.2656 217.743 24.6198 217.092 24.875C216.441 25.125 215.709 25.25 214.896 25.25ZM222.67 25V13H224.451V14.8125H224.576C224.795 14.2188 225.191 13.737 225.764 13.3672C226.337 12.9974 226.982 12.8125 227.701 12.8125C227.837 12.8125 228.006 12.8151 228.209 12.8203C228.412 12.8255 228.566 12.8333 228.67 12.8438V14.7187C228.607 14.7031 228.464 14.6797 228.24 14.6484C228.021 14.612 227.79 14.5937 227.545 14.5937C226.962 14.5937 226.441 14.7161 225.982 14.9609C225.529 15.2005 225.17 15.5339 224.904 15.9609C224.644 16.3828 224.514 16.8646 224.514 17.4062V25H222.67ZM236.951 13V14.5625H230.482V13H236.951ZM232.42 25V11.3438C232.42 10.6562 232.581 10.0833 232.904 9.625C233.227 9.16667 233.646 8.82292 234.162 8.59375C234.678 8.36458 235.222 8.25 235.795 8.25C236.248 8.25 236.618 8.28646 236.904 8.35937C237.191 8.43229 237.404 8.5 237.545 8.5625L237.014 10.1562C236.92 10.125 236.79 10.0859 236.623 10.0391C236.462 9.99219 236.248 9.96875 235.982 9.96875C235.373 9.96875 234.933 10.1224 234.662 10.4297C234.396 10.737 234.264 11.1875 234.264 11.7812V25H232.42ZM243.916 25.25C242.833 25.25 241.882 24.9922 241.064 24.4766C240.252 23.9609 239.617 23.2396 239.158 22.3125C238.705 21.3854 238.479 20.3021 238.479 19.0625C238.479 17.8125 238.705 16.7214 239.158 15.7891C239.617 14.8568 240.252 14.1328 241.064 13.6172C241.882 13.1016 242.833 12.8438 243.916 12.8438C244.999 12.8438 245.947 13.1016 246.76 13.6172C247.577 14.1328 248.213 14.8568 248.666 15.7891C249.124 16.7214 249.354 17.8125 249.354 19.0625C249.354 20.3021 249.124 21.3854 248.666 22.3125C248.213 23.2396 247.577 23.9609 246.76 24.4766C245.947 24.9922 244.999 25.25 243.916 25.25ZM243.916 23.5938C244.739 23.5938 245.416 23.3828 245.947 22.9609C246.479 22.5391 246.872 21.9844 247.127 21.2969C247.382 20.6094 247.51 19.8646 247.51 19.0625C247.51 18.2604 247.382 17.513 247.127 16.8203C246.872 16.1276 246.479 15.5677 245.947 15.1406C245.416 14.7135 244.739 14.5 243.916 14.5C243.093 14.5 242.416 14.7135 241.885 15.1406C241.354 15.5677 240.96 16.1276 240.705 16.8203C240.45 17.513 240.322 18.2604 240.322 19.0625C240.322 19.8646 240.45 20.6094 240.705 21.2969C240.96 21.9844 241.354 22.5391 241.885 22.9609C242.416 23.3828 243.093 23.5938 243.916 23.5938ZM252.168 25V13H253.949V14.8125H254.074C254.293 14.2188 254.689 13.737 255.262 13.3672C255.835 12.9974 256.48 12.8125 257.199 12.8125C257.335 12.8125 257.504 12.8151 257.707 12.8203C257.91 12.8255 258.064 12.8333 258.168 12.8438V14.7187C258.105 14.7031 257.962 14.6797 257.738 14.6484C257.52 14.612 257.288 14.5937 257.043 14.5937C256.46 14.5937 255.939 14.7161 255.48 14.9609C255.027 15.2005 254.668 15.5339 254.402 15.9609C254.142 16.3828 254.012 16.8646 254.012 17.4062V25H252.168ZM260.354 25V13H262.135V14.875H262.291C262.541 14.2344 262.945 13.737 263.502 13.3828C264.059 13.0234 264.729 12.8438 265.51 12.8438C266.301 12.8438 266.96 13.0234 267.486 13.3828C268.018 13.737 268.432 14.2344 268.729 14.875H268.854C269.161 14.2552 269.622 13.763 270.236 13.3984C270.851 13.0286 271.588 12.8438 272.447 12.8438C273.52 12.8438 274.398 13.1797 275.08 13.8516C275.762 14.5182 276.104 15.5573 276.104 16.9687V25H274.26V16.9687C274.26 16.0833 274.018 15.4505 273.533 15.0703C273.049 14.6901 272.479 14.5 271.822 14.5C270.979 14.5 270.325 14.7552 269.861 15.2656C269.398 15.7708 269.166 16.4115 269.166 17.1875V25H267.291V16.7812C267.291 16.099 267.07 15.5495 266.627 15.1328C266.184 14.7109 265.614 14.5 264.916 14.5C264.437 14.5 263.989 14.6276 263.572 14.8828C263.161 15.138 262.827 15.4922 262.572 15.9453C262.322 16.3932 262.197 16.9115 262.197 17.5V25H260.354ZM283.006 25.2813C282.245 25.2813 281.555 25.138 280.936 24.8516C280.316 24.5599 279.824 24.1406 279.459 23.5938C279.094 23.0417 278.912 22.375 278.912 21.5937C278.912 20.9062 279.048 20.349 279.318 19.9219C279.589 19.4896 279.951 19.151 280.404 18.9062C280.857 18.6615 281.357 18.4792 281.904 18.3594C282.456 18.2344 283.011 18.1354 283.568 18.0625C284.298 17.9687 284.889 17.8984 285.342 17.8516C285.8 17.7995 286.133 17.7135 286.342 17.5937C286.555 17.474 286.662 17.2656 286.662 16.9687V16.9062C286.662 16.1354 286.451 15.5365 286.029 15.1094C285.613 14.6823 284.98 14.4687 284.131 14.4687C283.251 14.4687 282.561 14.6615 282.061 15.0469C281.561 15.4323 281.209 15.8437 281.006 16.2812L279.256 15.6562C279.568 14.9271 279.985 14.3594 280.506 13.9531C281.032 13.5417 281.605 13.2552 282.225 13.0937C282.85 12.9271 283.464 12.8438 284.068 12.8438C284.454 12.8438 284.896 12.8906 285.396 12.9844C285.902 13.0729 286.389 13.2578 286.857 13.5391C287.331 13.8203 287.725 14.2448 288.037 14.8125C288.35 15.3802 288.506 16.1406 288.506 17.0938V25H286.662V23.375H286.568C286.443 23.6354 286.235 23.9141 285.943 24.2109C285.652 24.5078 285.264 24.7604 284.779 24.9687C284.295 25.1771 283.704 25.2813 283.006 25.2813ZM283.287 23.625C284.016 23.625 284.631 23.4818 285.131 23.1953C285.636 22.9089 286.016 22.5391 286.271 22.0859C286.532 21.6328 286.662 21.1562 286.662 20.6562V18.9687C286.584 19.0625 286.412 19.1484 286.146 19.2266C285.886 19.2995 285.584 19.3646 285.24 19.4219C284.902 19.474 284.571 19.5208 284.248 19.5625C283.93 19.599 283.673 19.6302 283.475 19.6562C282.995 19.7187 282.548 19.8203 282.131 19.9609C281.719 20.0964 281.386 20.3021 281.131 20.5781C280.881 20.849 280.756 21.2187 280.756 21.6875C280.756 22.3281 280.993 22.8125 281.467 23.1406C281.946 23.4635 282.553 23.625 283.287 23.625ZM293.715 17.7812V25H291.871V13H293.652V14.875H293.809C294.09 14.2656 294.517 13.776 295.09 13.4063C295.663 13.0313 296.402 12.8438 297.309 12.8438C298.121 12.8438 298.832 13.0104 299.441 13.3437C300.051 13.6719 300.525 14.1719 300.863 14.8437C301.202 15.5104 301.371 16.3542 301.371 17.375V25H299.527V17.5C299.527 16.5573 299.283 15.8229 298.793 15.2969C298.303 14.7656 297.632 14.5 296.777 14.5C296.189 14.5 295.663 14.6276 295.199 14.8828C294.741 15.138 294.379 15.5104 294.113 16C293.848 16.4896 293.715 17.0833 293.715 17.7812ZM309.615 25.25C308.49 25.25 307.521 24.9844 306.709 24.4531C305.896 23.9219 305.271 23.1901 304.834 22.2578C304.396 21.3255 304.178 20.2604 304.178 19.0625C304.178 17.8437 304.402 16.7682 304.85 15.8359C305.303 14.8984 305.933 14.1667 306.74 13.6406C307.553 13.1094 308.501 12.8438 309.584 12.8438C310.428 12.8438 311.188 13 311.865 13.3125C312.542 13.625 313.097 14.0625 313.529 14.625C313.962 15.1875 314.23 15.8437 314.334 16.5937H312.49C312.35 16.0469 312.037 15.5625 311.553 15.1406C311.074 14.7135 310.428 14.5 309.615 14.5C308.896 14.5 308.266 14.6875 307.725 15.0625C307.188 15.4323 306.769 15.9557 306.467 16.6328C306.17 17.3047 306.021 18.0937 306.021 19C306.021 19.9271 306.167 20.7344 306.459 21.4219C306.756 22.1094 307.173 22.6432 307.709 23.0234C308.251 23.4036 308.886 23.5938 309.615 23.5938C310.094 23.5938 310.529 23.5104 310.92 23.3437C311.311 23.1771 311.641 22.9375 311.912 22.625C312.183 22.3125 312.376 21.9375 312.49 21.5H314.334C314.23 22.2083 313.972 22.8464 313.561 23.4141C313.154 23.9766 312.615 24.4245 311.943 24.7578C311.277 25.0859 310.501 25.25 309.615 25.25ZM322.061 25.25C320.904 25.25 319.907 24.9948 319.068 24.4844C318.235 23.9688 317.592 23.25 317.139 22.3281C316.691 21.401 316.467 20.3229 316.467 19.0938C316.467 17.8646 316.691 16.7812 317.139 15.8437C317.592 14.901 318.222 14.1667 319.029 13.6406C319.842 13.1094 320.79 12.8438 321.873 12.8438C322.498 12.8438 323.115 12.9479 323.725 13.1562C324.334 13.3646 324.889 13.7031 325.389 14.1719C325.889 14.6354 326.287 15.25 326.584 16.0156C326.881 16.7812 327.029 17.724 327.029 18.8437V19.625H317.779V18.0312H325.154C325.154 17.3542 325.019 16.75 324.748 16.2187C324.482 15.6875 324.102 15.2682 323.607 14.9609C323.118 14.6536 322.54 14.5 321.873 14.5C321.139 14.5 320.503 14.6823 319.967 15.0469C319.436 15.4062 319.027 15.875 318.74 16.4531C318.454 17.0312 318.311 17.651 318.311 18.3125V19.375C318.311 20.2813 318.467 21.0495 318.779 21.6797C319.097 22.3047 319.537 22.7812 320.1 23.1094C320.662 23.4323 321.316 23.5938 322.061 23.5938C322.545 23.5938 322.982 23.526 323.373 23.3906C323.769 23.25 324.11 23.0417 324.396 22.7656C324.683 22.4844 324.904 22.1354 325.061 21.7187L326.842 22.2188C326.654 22.8229 326.339 23.3542 325.896 23.8125C325.454 24.2656 324.907 24.6198 324.256 24.875C323.605 25.125 322.873 25.25 322.061 25.25ZM336.271 9H338.584L344.021 22.2812H344.209L349.646 9H351.959V25H350.146V12.8438H349.99L344.99 25H343.24L338.24 12.8438H338.084V25H336.271V9ZM359.125 25.2813C358.365 25.2813 357.674 25.138 357.055 24.8516C356.435 24.5599 355.943 24.1406 355.578 23.5938C355.214 23.0417 355.031 22.375 355.031 21.5937C355.031 20.9062 355.167 20.349 355.438 19.9219C355.708 19.4896 356.07 19.151 356.523 18.9062C356.977 18.6615 357.477 18.4792 358.023 18.3594C358.576 18.2344 359.13 18.1354 359.688 18.0625C360.417 17.9687 361.008 17.8984 361.461 17.8516C361.919 17.7995 362.253 17.7135 362.461 17.5937C362.674 17.474 362.781 17.2656 362.781 16.9687V16.9062C362.781 16.1354 362.57 15.5365 362.148 15.1094C361.732 14.6823 361.099 14.4687 360.25 14.4687C359.37 14.4687 358.68 14.6615 358.18 15.0469C357.68 15.4323 357.328 15.8437 357.125 16.2812L355.375 15.6562C355.688 14.9271 356.104 14.3594 356.625 13.9531C357.151 13.5417 357.724 13.2552 358.344 13.0937C358.969 12.9271 359.583 12.8438 360.188 12.8438C360.573 12.8438 361.016 12.8906 361.516 12.9844C362.021 13.0729 362.508 13.2578 362.977 13.5391C363.451 13.8203 363.844 14.2448 364.156 14.8125C364.469 15.3802 364.625 16.1406 364.625 17.0938V25H362.781V23.375H362.688C362.563 23.6354 362.354 23.9141 362.063 24.2109C361.771 24.5078 361.383 24.7604 360.898 24.9687C360.414 25.1771 359.823 25.2813 359.125 25.2813ZM359.406 23.625C360.135 23.625 360.75 23.4818 361.25 23.1953C361.755 22.9089 362.135 22.5391 362.391 22.0859C362.651 21.6328 362.781 21.1562 362.781 20.6562V18.9687C362.703 19.0625 362.531 19.1484 362.266 19.2266C362.005 19.2995 361.703 19.3646 361.359 19.4219C361.021 19.474 360.69 19.5208 360.367 19.5625C360.049 19.599 359.792 19.6302 359.594 19.6562C359.115 19.7187 358.667 19.8203 358.25 19.9609C357.839 20.0964 357.505 20.3021 357.25 20.5781C357 20.849 356.875 21.2187 356.875 21.6875C356.875 22.3281 357.112 22.8125 357.586 23.1406C358.065 23.4635 358.672 23.625 359.406 23.625ZM367.99 25V13H369.771V14.8125H369.896C370.115 14.2188 370.511 13.737 371.084 13.3672C371.657 12.9974 372.303 12.8125 373.021 12.8125C373.157 12.8125 373.326 12.8151 373.529 12.8203C373.732 12.8255 373.886 12.8333 373.99 12.8438V14.7187C373.928 14.7031 373.785 14.6797 373.561 14.6484C373.342 14.612 373.11 14.5937 372.865 14.5937C372.282 14.5937 371.761 14.7161 371.303 14.9609C370.85 15.2005 370.49 15.5339 370.225 15.9609C369.964 16.3828 369.834 16.8646 369.834 17.4062V25H367.99ZM377.895 20.625L377.863 18.3438H378.238L383.488 13H385.77L380.176 18.6562H380.02L377.895 20.625ZM376.176 25V9H378.02V25H376.176ZM383.801 25L379.113 19.0625L380.426 17.7812L386.145 25H383.801ZM392.68 25.25C391.523 25.25 390.526 24.9948 389.687 24.4844C388.854 23.9688 388.211 23.25 387.758 22.3281C387.31 21.401 387.086 20.3229 387.086 19.0938C387.086 17.8646 387.31 16.7812 387.758 15.8437C388.211 14.901 388.841 14.1667 389.648 13.6406C390.461 13.1094 391.409 12.8438 392.492 12.8438C393.117 12.8438 393.734 12.9479 394.344 13.1562C394.953 13.3646 395.508 13.7031 396.008 14.1719C396.508 14.6354 396.906 15.25 397.203 16.0156C397.5 16.7812 397.648 17.724 397.648 18.8437V19.625H388.398V18.0312H395.773C395.773 17.3542 395.638 16.75 395.367 16.2187C395.102 15.6875 394.721 15.2682 394.227 14.9609C393.737 14.6536 393.159 14.5 392.492 14.5C391.758 14.5 391.122 14.6823 390.586 15.0469C390.055 15.4062 389.646 15.875 389.359 16.4531C389.073 17.0312 388.93 17.651 388.93 18.3125V19.375C388.93 20.2813 389.086 21.0495 389.398 21.6797C389.716 22.3047 390.156 22.7812 390.719 23.1094C391.281 23.4323 391.935 23.5938 392.68 23.5938C393.164 23.5938 393.602 23.526 393.992 23.3906C394.388 23.25 394.729 23.0417 395.016 22.7656C395.302 22.4844 395.523 22.1354 395.68 21.7187L397.461 22.2188C397.273 22.8229 396.958 23.3542 396.516 23.8125C396.073 24.2656 395.526 24.6198 394.875 24.875C394.224 25.125 393.492 25.25 392.68 25.25ZM405.672 13V14.5625H399.453V13H405.672ZM401.266 10.125H403.109V21.5625C403.109 22.0833 403.185 22.474 403.336 22.7344C403.492 22.9896 403.69 23.1615 403.93 23.25C404.174 23.3333 404.432 23.375 404.703 23.375C404.906 23.375 405.073 23.3646 405.203 23.3437C405.333 23.3177 405.438 23.2969 405.516 23.2812L405.891 24.9375C405.766 24.9844 405.591 25.0313 405.367 25.0781C405.143 25.1302 404.859 25.1563 404.516 25.1563C403.995 25.1563 403.484 25.0443 402.984 24.8203C402.49 24.5964 402.078 24.2552 401.75 23.7969C401.427 23.3385 401.266 22.7604 401.266 22.0625V10.125ZM408.445 25V13H410.289V25H408.445ZM409.383 11C409.023 11 408.714 10.8776 408.453 10.6328C408.198 10.388 408.07 10.0938 408.07 9.75C408.07 9.40625 408.198 9.11198 408.453 8.86719C408.714 8.6224 409.023 8.5 409.383 8.5C409.742 8.5 410.049 8.6224 410.305 8.86719C410.565 9.11198 410.695 9.40625 410.695 9.75C410.695 10.0938 410.565 10.388 410.305 10.6328C410.049 10.8776 409.742 11 409.383 11ZM415.51 17.7812V25H413.666V13H415.447V14.875H415.604C415.885 14.2656 416.312 13.776 416.885 13.4063C417.458 13.0313 418.197 12.8438 419.104 12.8438C419.916 12.8438 420.627 13.0104 421.236 13.3437C421.846 13.6719 422.32 14.1719 422.658 14.8437C422.997 15.5104 423.166 16.3542 423.166 17.375V25H421.322V17.5C421.322 16.5573 421.077 15.8229 420.588 15.2969C420.098 14.7656 419.426 14.5 418.572 14.5C417.984 14.5 417.458 14.6276 416.994 14.8828C416.536 15.138 416.174 15.5104 415.908 16C415.643 16.4896 415.51 17.0833 415.51 17.7812ZM431.379 29.75C430.488 29.75 429.723 29.6354 429.082 29.4063C428.441 29.1823 427.908 28.8854 427.48 28.5156C427.059 28.151 426.723 27.7604 426.473 27.3438L427.941 26.3125C428.108 26.5313 428.319 26.7813 428.574 27.0625C428.829 27.349 429.178 27.5964 429.621 27.8047C430.069 28.0182 430.655 28.125 431.379 28.125C432.348 28.125 433.147 27.8906 433.777 27.4219C434.408 26.9531 434.723 26.2187 434.723 25.2187V22.7812H434.566C434.431 23 434.238 23.2708 433.988 23.5938C433.743 23.9115 433.389 24.1953 432.926 24.4453C432.467 24.6901 431.848 24.8125 431.066 24.8125C430.098 24.8125 429.228 24.5833 428.457 24.125C427.691 23.6667 427.085 23 426.637 22.125C426.194 21.25 425.973 20.1875 425.973 18.9375C425.973 17.7083 426.189 16.638 426.621 15.7266C427.053 14.8099 427.655 14.1016 428.426 13.6016C429.197 13.0964 430.087 12.8438 431.098 12.8438C431.879 12.8438 432.499 12.974 432.957 13.2344C433.421 13.4896 433.775 13.7812 434.02 14.1094C434.27 14.4323 434.462 14.6979 434.598 14.9062H434.785V13H436.566V25.3438C436.566 26.375 436.332 27.2135 435.863 27.8594C435.4 28.5104 434.775 28.987 433.988 29.2891C433.207 29.5964 432.337 29.75 431.379 29.75ZM431.316 23.1562C432.056 23.1562 432.681 22.987 433.191 22.6484C433.702 22.3099 434.09 21.8229 434.355 21.1875C434.621 20.5521 434.754 19.7917 434.754 18.9062C434.754 18.0417 434.624 17.2786 434.363 16.6172C434.103 15.9557 433.717 15.4375 433.207 15.0625C432.697 14.6875 432.066 14.5 431.316 14.5C430.535 14.5 429.884 14.6979 429.363 15.0937C428.848 15.4896 428.46 16.0208 428.199 16.6875C427.944 17.3542 427.816 18.0937 427.816 18.9062C427.816 19.7396 427.947 20.4766 428.207 21.1172C428.473 21.7526 428.863 22.2526 429.379 22.6172C429.9 22.9766 430.546 23.1562 431.316 23.1562Z" fill="#0A2134"/>
<circle cx="12" cy="17" r="12" fill="#2699FB"/>
<path d="M16.6673 13.5L10.2507 19.9167L7.33398 17" stroke="white" stroke-width="2" stroke-linecap="round" stroke-linejoin="round"/>
</svg>
